<svg width="20" height="20" viewBox="0 0 20 20" fill="none" xmlns="http://www.w3.org/2000/svg">
<path fill-rule="evenodd" clip-rule="evenodd" d="M2.72393 5.96321L8.50429 1.91571C8.81461 1.69849 9.19851 1.61341 9.57155 1.67917C9.94459 1.74494 10.2762 1.95618 10.4936 2.26643L11.4054 3.56821C11.4187 3.58726 11.4314 3.60667 11.4436 3.62643L2.72393 5.96321ZM0.766789 10.6571L0.371432 9.18143C0.273496 8.81543 0.324961 8.42552 0.514506 8.09746C0.704051 7.76941 1.01615 7.53009 1.38215 7.43214L15.8707 3.55C16.2367 3.45193 16.6266 3.50324 16.9547 3.69265C17.2828 3.88206 17.5223 4.19405 17.6204 4.56L18.0314 6.095C18.0895 6.31171 18.0825 6.54071 18.0113 6.75346C17.9401 6.96622 17.8079 7.15332 17.6311 7.29143C17.3532 7.50813 17.1457 7.80218 17.0346 8.13656C16.9234 8.47095 16.9137 8.83073 17.0066 9.17064C17.0995 9.51054 17.2908 9.81537 17.5566 10.0468C17.8223 10.2782 18.1506 10.4258 18.5 10.4711C18.7158 10.4992 18.9184 10.5908 19.0822 10.7341C19.246 10.8775 19.3635 11.0662 19.42 11.2764L19.8386 12.8396C19.9366 13.2056 19.8853 13.5955 19.6959 13.9236C19.5065 14.2517 19.1945 14.4912 18.8286 14.5893L4.33929 18.4714C3.97339 18.5694 3.58356 18.518 3.25552 18.3286C2.92749 18.1392 2.6881 17.8273 2.59 17.4614L2.19607 15.9907C2.13381 15.7593 2.13979 15.5148 2.2133 15.2867C2.2868 15.0585 2.42469 14.8565 2.61036 14.705C2.87715 14.4872 3.07529 14.197 3.18092 13.8692C3.28655 13.5414 3.29516 13.1901 3.20571 12.8575C3.11627 12.5249 2.93258 12.2253 2.67678 11.9947C2.42098 11.7641 2.10397 11.6124 1.76393 11.5579C1.5287 11.5199 1.30946 11.4148 1.1326 11.2551C0.955753 11.0954 0.828838 10.888 0.767146 10.6579M13.4379 8.26893C13.5754 8.234 13.7046 8.1721 13.818 8.08684C13.9314 8.00157 14.0267 7.89463 14.0985 7.77222C14.1702 7.64981 14.2169 7.51437 14.2359 7.37376C14.2549 7.23315 14.2457 7.09018 14.209 6.95313C14.1723 6.81609 14.1087 6.6877 14.0219 6.57542C13.9352 6.46315 13.827 6.36922 13.7037 6.29909C13.5803 6.22896 13.4443 6.18402 13.3035 6.16689C13.1626 6.14976 13.0198 6.16077 12.8832 6.19929C12.6121 6.27577 12.382 6.45597 12.2427 6.70088C12.1034 6.94579 12.0662 7.23569 12.1392 7.50782C12.2121 7.77995 12.3893 8.01241 12.6323 8.15486C12.8754 8.29731 13.1648 8.33829 13.4379 8.26893ZM14.1771 11.0289C14.3131 10.9925 14.4405 10.9297 14.5521 10.8441C14.6638 10.7584 14.7575 10.6517 14.8278 10.5298C14.8982 10.408 14.9439 10.2735 14.9623 10.134C14.9807 9.99446 14.9714 9.8527 14.935 9.71679C14.8986 9.58087 14.8358 9.45345 14.7502 9.3418C14.6645 9.23016 14.5577 9.13648 14.4359 9.0661C14.314 8.99573 14.1795 8.95004 14.04 8.93165C13.9005 8.91327 13.7588 8.92253 13.6229 8.95893C13.3484 9.03248 13.1143 9.21206 12.9722 9.45817C12.8301 9.70428 12.7916 9.99675 12.8652 10.2712C12.9387 10.5457 13.1183 10.7798 13.3644 10.9219C13.6105 11.064 13.9026 11.1025 14.1771 11.0289ZM14.9171 13.7886C15.055 13.754 15.1847 13.6923 15.2985 13.6072C15.4123 13.522 15.508 13.4151 15.5801 13.2926C15.6522 13.17 15.6992 13.0344 15.7183 12.8935C15.7374 12.7527 15.7283 12.6094 15.6916 12.4721C15.6548 12.3348 15.5911 12.2062 15.5041 12.0938C15.4171 11.9813 15.3086 11.8873 15.185 11.8172C15.0613 11.7471 14.9249 11.7023 14.7838 11.6854C14.6427 11.6686 14.4996 11.68 14.3629 11.7189C14.0925 11.796 13.8632 11.9763 13.7245 12.2209C13.5859 12.4655 13.5489 12.7549 13.6217 13.0265C13.6944 13.2981 13.871 13.5302 14.1134 13.6728C14.3557 13.8154 14.6444 13.8569 14.9171 13.7886Z" fill="white"/>
</svg>
