<svg width="20" height="20" viewBox="0 0 20 20" fill="none" xmlns="http://www.w3.org/2000/svg">
<path d="M4.16668 9.99999L5.83334 6.66666V5.83332H3.33334V6.66666H5.00001L3.33334 9.99999M7.50001 9.99999L9.16668 6.66666V5.83332H6.66668V6.66666H8.33334L6.66668 9.99999M10.8333 9.99999L12.5 6.66666V5.83332H10V6.66666H11.6667L10 9.99999M17.5 1.66666C16.5833 1.66666 15.8333 2.41666 15.8333 3.33332C15.8333 3.91666 16.1667 4.49999 16.6667 4.74999V14.1667H14.1667V12.5C14.6667 12.5 15 12.1667 15 11.6667V4.16666C15 3.66666 14.6667 3.33332 14.1667 3.33332H11C10.3333 2.33332 9.16668 1.66666 7.91668 1.66666C6.66668 1.66666 5.50001 2.33332 4.83334 3.33332H1.66668C1.16668 3.33332 0.833344 3.66666 0.833344 4.16666V11.6667C0.833344 12.1667 1.16668 12.5 1.66668 12.5V18.3333H14.1667V15.8333H16.6667C17.5833 15.8333 18.3333 15.0833 18.3333 14.1667V4.74999C18.8333 4.49999 19.1667 3.91666 19.1667 3.33332C19.1667 2.41666 18.4167 1.66666 17.5 1.66666ZM10.8333 15.8333H5.00001V14.1667H10.8333V15.8333ZM13.3333 10.8333H2.50001V4.99999H13.3333V10.8333Z" fill="white"/>
</svg>
