<svg width="20" height="20" viewBox="0 0 20 20" fill="none" xmlns="http://www.w3.org/2000/svg">
<path d="M13.3333 2.5C13.971 2.49996 14.5846 2.7436 15.0485 3.18107C15.5125 3.61854 15.7917 4.21676 15.8292 4.85333L15.8333 5V13.3333H16.4583C16.9975 13.3333 17.4417 13.7433 17.495 14.2683L17.5 14.375V15.8333C17.5 16.471 17.2564 17.0846 16.8189 17.5485C16.3815 18.0125 15.7832 18.2918 15.1467 18.3292L15 18.3333H6.66666C6.02898 18.3334 5.41539 18.0897 4.95144 17.6523C4.48748 17.2148 4.20823 16.6166 4.17082 15.98L4.16666 15.8333V7.5H2.70832C2.45044 7.50012 2.20168 7.40457 2.01019 7.23186C1.81869 7.05914 1.69806 6.82153 1.67166 6.565L1.66666 6.45833V5C1.66662 4.36232 1.91026 3.74874 2.34773 3.28478C2.78519 2.82083 3.38341 2.54158 4.01999 2.50417L4.16666 2.5H13.3333ZM15.8333 15H8.33332V15.8333C8.33332 16.125 8.28332 16.4058 8.19166 16.6667H15C15.221 16.6667 15.433 16.5789 15.5892 16.4226C15.7455 16.2663 15.8333 16.0543 15.8333 15.8333V15ZM9.99999 10H8.33332C8.12092 10.0002 7.91663 10.0816 7.76218 10.2274C7.60774 10.3732 7.51479 10.5725 7.50235 10.7845C7.4899 10.9965 7.55888 11.2053 7.69521 11.3682C7.83154 11.5311 8.02491 11.6357 8.23582 11.6608L8.33332 11.6667H9.99999C10.2124 11.6664 10.4167 11.5851 10.5711 11.4393C10.7256 11.2935 10.8185 11.0942 10.831 10.8822C10.8434 10.6701 10.7744 10.4614 10.6381 10.2985C10.5018 10.1356 10.3084 10.0309 10.0975 10.0058L9.99999 10ZM11.6667 6.66667H8.33332C8.11231 6.66667 7.90035 6.75446 7.74407 6.91074C7.58779 7.06702 7.49999 7.27899 7.49999 7.5C7.49999 7.72101 7.58779 7.93297 7.74407 8.08926C7.90035 8.24554 8.11231 8.33333 8.33332 8.33333H11.6667C11.8877 8.33333 12.0996 8.24554 12.2559 8.08926C12.4122 7.93297 12.5 7.72101 12.5 7.5C12.5 7.27899 12.4122 7.06702 12.2559 6.91074C12.0996 6.75446 11.8877 6.66667 11.6667 6.66667ZM4.16666 4.16667C3.94564 4.16667 3.73368 4.25446 3.5774 4.41074C3.42112 4.56702 3.33332 4.77899 3.33332 5V5.83333H4.16666V4.16667Z" fill="white"/>
</svg>
