<svg width="16" height="16" viewBox="0 0 16 16" fill="none" xmlns="http://www.w3.org/2000/svg">
<g clip-path="url(#clip0_2825_4635)">
<mask id="mask0_2825_4635" style="mask-type:luminance" maskUnits="userSpaceOnUse" x="0" y="0" width="16" height="16">
<path d="M16 0H0V16H16V0Z" fill="white"/>
</mask>
<g mask="url(#mask0_2825_4635)">
<path d="M8.49902 8.00103C8.49902 8.08942 8.53414 8.1742 8.59664 8.2367C8.65915 8.2992 8.74392 8.33432 8.83231 8.33432H14.4983C14.8075 8.33379 15.1039 8.21072 15.3225 7.99207C15.5412 7.77342 15.6643 7.47702 15.6648 7.1678V5.83464C15.6644 5.52536 15.5414 5.22886 15.3227 5.01017C15.104 4.79148 14.8075 4.66847 14.4983 4.66812H8.83231C8.74392 4.66812 8.65915 4.70323 8.59664 4.76573C8.53414 4.82824 8.49902 4.91301 8.49902 5.00141V8.00103Z" fill="#FFF5D6"/>
<path d="M2.33304 8.33432H7.16576C7.25415 8.33432 7.33893 8.2992 7.40143 8.2367C7.46394 8.1742 7.49905 8.08942 7.49905 8.00103V5.00141C7.49905 4.91301 7.46394 4.82824 7.40143 4.76573C7.33893 4.70323 7.25415 4.66812 7.16576 4.66812H1.16652C0.857247 4.66847 0.560744 4.79148 0.342055 5.01017C0.123367 5.22886 0.000352849 5.52536 0 5.83464V7.1678C0.000528729 7.47702 0.123599 7.77342 0.34225 7.99207C0.5609 8.21072 0.857301 8.33379 1.16652 8.33432H2.33304Z" fill="#FFF5D6"/>
<path d="M7.49914 9.66746C7.49914 9.57906 7.46402 9.49429 7.40152 9.43178C7.33902 9.36928 7.25424 9.33417 7.16585 9.33417H1.66654C1.57815 9.33417 1.49337 9.36928 1.43087 9.43178C1.36837 9.49429 1.33325 9.57906 1.33325 9.66746V14.8335C1.33378 15.1427 1.45685 15.4391 1.6755 15.6577C1.89415 15.8764 2.19055 15.9995 2.49977 16H7.16585C7.25424 16 7.33902 15.9649 7.40152 15.9024C7.46402 15.8399 7.49914 15.7551 7.49914 15.6667V9.66746Z" fill="#FFF5D6"/>
<path d="M8.83231 9.33417C8.74392 9.33417 8.65915 9.36928 8.59664 9.43178C8.53414 9.49429 8.49902 9.57906 8.49902 9.66746V15.6667C8.49902 15.7551 8.53414 15.8399 8.59664 15.9024C8.65915 15.9649 8.74392 16 8.83231 16H13.1651C13.4743 15.9995 13.7707 15.8764 13.9894 15.6577C14.208 15.4391 14.3311 15.1427 14.3316 14.8335V9.66746C14.3316 9.57906 14.2965 9.49429 14.234 9.43178C14.1715 9.36928 14.0867 9.33417 13.9983 9.33417H8.83231Z" fill="#FFF5D6"/>
<path d="M8.52721 4.47279C8.60824 4.55356 8.70869 4.61211 8.8189 4.64281C8.9291 4.67351 9.04535 4.67534 9.15647 4.6481C9.94504 4.45546 11.8428 3.94552 12.4227 3.3656C12.7923 2.99549 12.9997 2.49373 12.9993 1.97069C12.999 1.44766 12.7908 0.946194 12.4207 0.576617C12.0506 0.207041 11.5489 -0.000374518 11.0258 5.07675e-07C10.5028 0.000375533 10.0013 0.20851 9.63174 0.578617C9.12714 1.08322 8.64587 2.62969 8.34924 3.84487C8.32513 3.9561 8.32876 4.07156 8.3598 4.18106C8.39083 4.29056 8.44833 4.39075 8.52721 4.47279ZM10.5763 1.52116C10.635 1.45955 10.7054 1.4103 10.7834 1.37631C10.8614 1.34232 10.9454 1.32427 11.0305 1.32324C11.1155 1.3222 11.2 1.33819 11.2788 1.37027C11.3576 1.40235 11.4291 1.44987 11.4893 1.51003C11.5495 1.57019 11.597 1.64178 11.6291 1.72059C11.6611 1.79939 11.6771 1.88381 11.6761 1.96889C11.6751 2.05396 11.657 2.13797 11.623 2.21597C11.589 2.29396 11.5398 2.36437 11.4782 2.42305C11.0017 2.69913 10.4893 2.90819 9.9557 3.04431C10.091 2.5103 10.2999 1.99768 10.5763 1.52116Z" fill="#FFF5D6"/>
<path d="M7.64648 3.84219C7.35051 2.63101 6.86924 1.08387 6.36597 0.578603C5.99639 0.208673 5.495 0.000708006 4.97209 0.000457989C4.44918 0.000207973 3.94759 0.207693 3.57766 0.57727C3.20773 0.946847 2.99976 1.44824 2.99951 1.97115C2.99926 2.49406 3.20675 2.99565 3.57632 3.36558C4.15492 3.94551 6.05268 4.45545 6.84258 4.64809C6.95369 4.67532 7.06994 4.6735 7.18015 4.64279C7.29036 4.61209 7.3908 4.55354 7.47183 4.47278C7.55056 4.39014 7.60768 4.28936 7.63815 4.17936C7.66861 4.06937 7.67147 3.95356 7.64648 3.84219ZM4.51954 2.42304C4.46032 2.36386 4.41334 2.2936 4.38127 2.21627C4.3492 2.13894 4.33268 2.05605 4.33265 1.97233C4.33262 1.88861 4.34908 1.80571 4.38109 1.72835C4.4131 1.651 4.46003 1.5807 4.5192 1.52148C4.57838 1.46227 4.64864 1.41528 4.72597 1.38322C4.8033 1.35115 4.8862 1.33463 4.96991 1.3346C5.13899 1.33454 5.30116 1.40164 5.42076 1.52115C5.69747 1.99752 5.90635 2.51018 6.04135 3.04429C5.50769 2.90887 4.9955 2.69978 4.51954 2.42304Z" fill="#FFF5D6"/>
</g>
</g>
<defs>
<clipPath id="clip0_2825_4635">
<rect width="16" height="16" fill="white"/>
</clipPath>
</defs>
</svg>
