<svg width="20" height="20" viewBox="0 0 20 20" fill="none" xmlns="http://www.w3.org/2000/svg">
<path d="M3.12501 3.75H16.875C17.2065 3.75 17.5245 3.8817 17.7589 4.11612C17.9933 4.35054 18.125 4.66848 18.125 5V17.5C18.1264 17.7384 18.059 17.9721 17.9308 18.173C17.8026 18.374 17.6191 18.5336 17.4024 18.6328C17.2372 18.7097 17.0572 18.7497 16.875 18.75C16.5816 18.7492 16.2979 18.6446 16.0742 18.4547L16.0672 18.4492L13.5156 16.25H3.12501C2.79349 16.25 2.47554 16.1183 2.24113 15.8839C2.0067 15.6495 1.87501 15.3315 1.87501 15V5C1.87501 4.66848 2.0067 4.35054 2.24113 4.11612C2.47554 3.8817 2.79349 3.75 3.12501 3.75ZM13.4375 10.9375C13.6229 10.9375 13.8042 10.8825 13.9584 10.7795C14.1125 10.6765 14.2327 10.5301 14.3036 10.3588C14.3746 10.1875 14.3932 9.99896 14.357 9.8171C14.3208 9.63525 14.2315 9.4682 14.1004 9.33709C13.9693 9.20598 13.8023 9.11669 13.6204 9.08051C13.4385 9.04434 13.25 9.06291 13.0787 9.13386C12.9074 9.20482 12.761 9.32498 12.658 9.47915C12.555 9.63332 12.5 9.81458 12.5 10C12.5 10.2486 12.5988 10.4871 12.7746 10.6629C12.9504 10.8387 13.1889 10.9375 13.4375 10.9375ZM10 10.9375C10.1854 10.9375 10.3667 10.8825 10.5209 10.7795C10.675 10.6765 10.7952 10.5301 10.8661 10.3588C10.9371 10.1875 10.9557 9.99896 10.9195 9.8171C10.8833 9.63525 10.794 9.4682 10.6629 9.33709C10.5318 9.20598 10.3648 9.11669 10.1829 9.08051C10.001 9.04434 9.81255 9.06291 9.64124 9.13386C9.46994 9.20482 9.32352 9.32498 9.22051 9.47915C9.11749 9.63332 9.06251 9.81458 9.06251 10C9.06251 10.2486 9.16128 10.4871 9.3371 10.6629C9.51291 10.8387 9.75137 10.9375 10 10.9375ZM6.56251 10.9375C6.74793 10.9375 6.92918 10.8825 7.08335 10.7795C7.23753 10.6765 7.35769 10.5301 7.42864 10.3588C7.4996 10.1875 7.51817 9.99896 7.48199 9.8171C7.44582 9.63525 7.35653 9.4682 7.22542 9.33709C7.09431 9.20598 6.92726 9.11669 6.74541 9.08051C6.56355 9.04434 6.37505 9.06291 6.20374 9.13386C6.03244 9.20482 5.88602 9.32498 5.78301 9.47915C5.67999 9.63332 5.62501 9.81458 5.62501 10C5.62501 10.2486 5.72378 10.4871 5.8996 10.6629C6.07541 10.8387 6.31387 10.9375 6.56251 10.9375Z" fill="white"/>
</svg>
