<svg width="20" height="20" viewBox="0 0 20 20" fill="none" xmlns="http://www.w3.org/2000/svg">
<path fill-rule="evenodd" clip-rule="evenodd" d="M4.53316 7.475C4.03516 6.97699 3.35973 6.69723 2.65543 6.69723C1.95113 6.69723 1.2757 6.97703 0.777695 7.47508C-0.259258 8.51207 -0.259219 10.1934 0.777734 11.2304C2.27766 12.7303 4.52371 14.9765 6.02367 16.4765C6.52164 16.9745 7.19707 17.2543 7.90137 17.2543C8.60563 17.2543 9.28109 16.9745 9.77906 16.4766L19.2222 7.0334C20.2592 5.99648 20.2593 4.31531 19.2225 3.27824L19.2222 3.27797C18.7242 2.77988 18.0487 2.50004 17.3444 2.5C16.6401 2.49996 15.9646 2.77973 15.4666 3.27777L8.12203 10.6223C8.06348 10.6809 7.98406 10.7138 7.90125 10.7138C7.81844 10.7138 7.73902 10.6809 7.68047 10.6223L4.53316 7.475Z" fill="white"/>
<path fill-rule="evenodd" clip-rule="evenodd" d="M16.9144 2.535C17.4594 2.62434 17.967 2.88227 18.3626 3.27797L18.3629 3.27824C19.3997 4.31531 19.3996 5.99648 18.3626 7.0334L8.91947 16.4766C8.52392 16.8721 8.01642 17.13 7.4715 17.2193C7.61263 17.2425 7.75626 17.2543 7.90114 17.2543C8.6054 17.2543 9.28087 16.9745 9.77884 16.4766L19.222 7.0334C20.259 5.99648 20.259 4.31531 19.2222 3.27824L19.222 3.27797C18.724 2.77988 18.0485 2.50004 17.3442 2.5C17.1993 2.5 17.0555 2.51184 16.9144 2.535Z" fill="white"/>
</svg>
