<svg width="64" height="64" viewBox="0 0 64 64" fill="none" xmlns="http://www.w3.org/2000/svg">
<path d="M50.5701 12.9528L51.6791 15.2348C51.8491 15.5848 52.1791 15.8278 52.5591 15.8838L55.0401 16.2498C55.9991 16.3908 56.3821 17.5878 55.6881 18.2748L53.8931 20.0508C53.6171 20.3238 53.4921 20.7168 53.5571 21.1018L53.9811 23.6098C54.1451 24.5798 53.1421 25.3188 52.2841 24.8608L50.0651 23.6768C49.7241 23.4948 49.3171 23.4948 48.9771 23.6768L46.7581 24.8608C45.9001 25.3188 44.8971 24.5788 45.0611 23.6098L45.4851 21.1018C45.5501 20.7168 45.4241 20.3238 45.1491 20.0508L43.3541 18.2748C42.6601 17.5878 43.0431 16.3918 44.0021 16.2498L46.4831 15.8838C46.8641 15.8278 47.1931 15.5848 47.3631 15.2348L48.4721 12.9528C48.9021 12.0698 50.1411 12.0698 50.5701 12.9528Z" fill="#FAB400"/>
<path d="M33.049 4.66225L34.158 6.94425C34.328 7.29425 34.658 7.53725 35.038 7.59325L37.519 7.95925C38.478 8.10025 38.861 9.29725 38.167 9.98425L36.372 11.7602C36.096 12.0332 35.971 12.4262 36.036 12.8112L36.46 15.3192C36.624 16.2892 35.621 17.0282 34.763 16.5702L32.544 15.3862C32.203 15.2042 31.796 15.2042 31.456 15.3862L29.237 16.5702C28.379 17.0282 27.376 16.2882 27.54 15.3192L27.964 12.8112C28.029 12.4262 27.903 12.0332 27.628 11.7602L25.833 9.98425C25.139 9.29725 25.522 8.10125 26.481 7.95925L28.962 7.59325C29.343 7.53725 29.672 7.29425 29.842 6.94425L30.951 4.66225C31.38 3.77925 32.62 3.77925 33.049 4.66225Z" fill="#FAB400"/>
<path d="M15.5269 12.9528L16.6359 15.2348C16.8059 15.5848 17.1359 15.8278 17.5159 15.8838L19.9969 16.2498C20.9559 16.3908 21.3389 17.5878 20.6449 18.2748L18.8499 20.0508C18.5739 20.3238 18.4489 20.7168 18.5139 21.1018L18.9379 23.6098C19.1019 24.5798 18.0989 25.3188 17.2409 24.8608L15.0219 23.6768C14.6809 23.4948 14.2739 23.4948 13.9339 23.6768L11.7149 24.8608C10.8569 25.3188 9.85393 24.5788 10.0179 23.6098L10.4419 21.1018C10.5069 20.7168 10.3809 20.3238 10.1059 20.0508L8.31093 18.2748C7.61693 17.5878 7.99993 16.3918 8.95893 16.2498L11.4399 15.8838C11.8209 15.8278 12.1499 15.5848 12.3199 15.2348L13.4289 12.9528C13.8589 12.0698 15.0979 12.0698 15.5269 12.9528Z" fill="#FAB400"/>
<path d="M50.2998 46.0003H49.4998C51.2698 46.0003 52.7198 47.3003 52.9598 49.0003C52.9998 49.2203 53.0098 49.4503 52.9998 49.6903C52.8998 51.5803 51.1998 53.0003 49.2998 53.0003H48.4998C50.2798 53.0003 51.7398 54.3203 51.9598 56.0403C51.9998 56.2503 52.0098 56.4703 51.9998 56.6903C51.8998 58.5803 50.1998 60.0003 48.2998 60.0003H27.2998C26.1298 60.0003 24.9798 59.6503 23.9998 59.0003C23.0198 58.3503 21.8698 58.0003 20.6998 58.0003H18.9998V34.0003H23.9998C26.7598 34.0003 28.9998 31.7603 28.9998 29.0003V22.0003C28.9998 20.9203 29.8598 20.0103 30.9398 20.0003C33.7298 19.9703 35.9998 22.2203 35.9998 25.0003V31.0003C35.9998 31.5503 36.4498 32.0003 36.9998 32.0003H51.4998C53.2698 32.0003 54.7198 33.3003 54.9598 35.0003C54.9998 35.2203 55.0098 35.4503 54.9998 35.6903C54.8998 37.5803 53.1998 39.0003 51.2998 39.0003H50.4998C52.2698 39.0003 53.7198 40.3003 53.9598 42.0003C53.9998 42.2203 54.0098 42.4503 53.9998 42.6903C53.8998 44.5803 52.1998 46.0003 50.2998 46.0003Z" fill="#F0C8A0"/>
<path d="M54.9998 35.69C54.8998 37.58 53.1998 39 51.2998 39H42.9998C42.9998 38.45 43.4498 38 43.9998 38H51.4998C53.2498 38 54.7098 36.7 54.9598 35C54.9998 35.22 55.0098 35.45 54.9998 35.69Z" fill="#D2AA82"/>
<path d="M53.9998 42.69C53.8998 44.58 52.1998 46 50.2998 46H42.9998C42.9998 45.45 43.4498 45 43.9998 45H50.4998C52.2498 45 53.7098 43.7 53.9598 42C53.9998 42.22 54.0098 42.45 53.9998 42.69Z" fill="#D2AA82"/>
<path d="M52.9998 49.69C52.8998 51.58 51.1998 53 49.2998 53H42.9998C42.9998 52.45 43.4498 52 43.9998 52H49.4998C51.2498 52 52.7098 50.7 52.9598 49C52.9998 49.22 53.0098 49.45 52.9998 49.69Z" fill="#D2AA82"/>
<path d="M17.9998 60H8.99976C8.44776 60 7.99976 59.552 7.99976 59V33C7.99976 32.448 8.44776 32 8.99976 32H17.9998C18.5518 32 18.9998 32.448 18.9998 33V59C18.9998 59.552 18.5518 60 17.9998 60Z" fill="#C80A50"/>
<path d="M18.9998 58V59C18.9998 59.55 18.5498 60 17.9998 60H8.99976C8.44976 60 7.99976 59.55 7.99976 59V58C7.99976 58.55 8.44976 59 8.99976 59H17.9998C18.5498 59 18.9998 58.55 18.9998 58Z" fill="#A00028"/>
<path d="M13.4998 41C14.8805 41 15.9998 39.8807 15.9998 38.5C15.9998 37.1193 14.8805 36 13.4998 36C12.119 36 10.9998 37.1193 10.9998 38.5C10.9998 39.8807 12.119 41 13.4998 41Z" fill="#A00028"/>
<path d="M13.4998 40C14.8805 40 15.9998 38.8807 15.9998 37.5C15.9998 36.1193 14.8805 35 13.4998 35C12.119 35 10.9998 36.1193 10.9998 37.5C10.9998 38.8807 12.119 40 13.4998 40Z" fill="#F0F0F0"/>
<path d="M51.9998 56.69C51.8998 58.58 50.1998 60 48.2998 60H27.2998C26.1298 60 24.9798 59.65 23.9998 59C23.0198 58.35 21.8698 58 20.6998 58H18.9998V34H19.9998V57H20.6998C21.8698 57 23.0198 57.35 23.9998 58C24.9798 58.65 26.1298 59 27.2998 59H48.2998C50.0798 59 51.6898 57.75 51.9598 56.04C51.9998 56.25 52.0098 56.47 51.9998 56.69Z" fill="#D2AA82"/>
</svg>
