<svg width="162" height="50" viewBox="0 0 162 50" fill="none" xmlns="http://www.w3.org/2000/svg">
<g clip-path="url(#clip0_203_3044)">
<path d="M157.48 8.49856L146.971 0L126.817 3.80747L122.16 0L106.764 2.03305L104.26 0L70.6028 2.35632L67.7093 0L49.8877 8.80747L42.8411 3.01006C42.9346 3.08908 19.8946 8.27586 19.8946 8.27586L0 41.5086L10.5087 50C15.4416 49.2337 20.3769 48.5345 25.3145 47.9023C26.0199 45.7328 26.7397 43.5632 27.4739 41.3937L34.175 46.8032C38.6664 46.2859 43.165 45.807 47.6708 45.3664L46.5047 42.1767L50.1684 45.1293C55.1061 44.6504 60.0485 44.2457 64.9958 43.9152L65.8595 41.5733L68.4723 43.6782C79.3985 42.9885 90.3223 42.5647 101.244 42.4066C101.517 41.6882 101.798 40.9698 102.071 40.3017L104.612 42.3851C105.98 42.3851 115.841 42.3851 119.411 42.4713C120.131 40.5675 120.901 38.6638 121.649 36.7672L129.02 42.7227C133.943 42.8951 138.864 43.1346 143.782 43.4411C142.458 37.785 141.11 32.1648 139.737 26.5805C145.481 20.8333 151.772 14.4181 157.48 8.49856Z" fill="black"/>
<path d="M32.9226 0H3.06625C5.85898 2.24856 11.3581 6.61638 11.3365 6.67385C11.0702 7.47126 0.914116 38.6063 0 41.5086C4.92807 40.7519 9.86333 40.0551 14.8058 39.4181C16.2981 34.8491 17.8049 30.2778 19.326 25.704C20.7655 29.909 22.2051 34.114 23.6446 38.319C28.136 37.7921 32.6346 37.3132 37.1404 36.8822C35.6073 32.7083 32.6203 24.3678 32.6203 24.3678C45.713 22.5575 53.4794 0 32.9226 0ZM27.9849 15.8764C24.7099 16.0489 22.9465 16.171 22.5506 16.1853C23.3519 13.8242 24.1653 11.4535 24.9906 9.07328C26.4302 9.03017 27.8697 8.97989 29.3093 8.97989C33.3976 8.97989 33.0377 15.6322 27.9849 15.8908V15.8764Z" fill="#FFE500"/>
<path d="M53.1483 0V0.0574713C52.0902 2.80172 40.7249 33.5848 39.6381 36.6379C44.5757 36.159 49.5182 35.7519 54.4654 35.4167C55.5451 32.4713 64.3264 8.87931 67.7093 0C62.8652 0 57.9995 0 53.1483 0Z" fill="#FFE500"/>
<path d="M104.26 0H71.5097C71.2074 0.79023 69.0985 6.32184 68.3067 8.29023C72.9085 8.24713 77.5079 8.216 82.1048 8.19684C80.327 9.71264 62.858 25.0934 61.1809 26.6667C60.0821 29.4828 59.0024 32.3276 57.942 35.2011C68.8682 34.5115 79.792 34.0853 90.7134 33.9224C91.7738 31.2356 92.8343 28.5489 93.8948 25.8621C89.2882 25.8908 84.684 25.9531 80.0823 26.0488C83.5156 23.046 99.1851 9.70546 100.956 8.23276L104.26 0Z" fill="#FFE500"/>
<path d="M146.971 0H130.69C129.466 1.22126 118.993 11.6595 116.733 13.9009C118.497 9.38218 120.397 4.56178 122.16 0C117.323 0 112.415 0.0431034 107.571 0C107.304 0.668103 98.2638 23.3549 94.1035 33.8578C95.4711 33.8578 107.117 33.908 108.902 33.9368C109.939 31.3075 114.077 20.7399 115.114 18.1322C116.241 23.4818 117.376 28.8458 118.518 34.2241C123.437 34.3966 128.355 34.636 133.274 34.9425C131.925 29.3151 130.577 23.7045 129.229 18.1106C130.668 16.6307 142.688 4.44684 146.971 0Z" fill="#FFE500"/>
<path d="M154.824 0.840516H155.666V3.50575H156.666V0.840516H157.509V0.00718307H154.824V0.840516Z" fill="black"/>
<path d="M161.741 0.00718307H160.575L159.977 1.9181L159.366 0.00718307H158.214L157.948 3.50575H158.934L159.027 1.73851L159.589 3.50575H160.359L160.913 1.75287L161.014 3.50575H162L161.741 0.00718307Z" fill="black"/>
</g>
<defs>
<clipPath id="clip0_203_3044">
<rect width="162" height="50" fill="white"/>
</clipPath>
</defs>
</svg>
