<svg width="33" height="32" viewBox="0 0 33 32" fill="none" xmlns="http://www.w3.org/2000/svg">
<path d="M20.0569 31.9999C21.1244 31.9999 22.0553 31.0834 22.0553 30.0324V25.4375H23.3897C24.1905 25.4375 24.7241 24.9119 24.7241 24.1238V11H8.72412V24.1239C8.72412 24.9121 9.25788 25.4376 10.0585 25.4376H11.393V30.0325C11.393 31.0835 12.3237 32 13.3914 32C14.4589 32 15.3897 31.0835 15.3897 30.0325V25.4376H18.0586V30.0325C18.0585 31.0834 18.9894 31.9999 20.0569 31.9999Z" fill="white"/>
<path d="M28.7242 24C29.7926 24 30.7241 23.0922 30.7241 22.0511V12.9481C30.7241 11.9125 29.7926 11 28.7242 11C27.6557 11 26.7241 11.9125 26.7241 12.9481V22.0511C26.7241 23.0921 27.6556 24 28.7242 24Z" fill="white"/>
<path d="M5.72401 24C6.79252 24 7.72412 23.0922 7.72412 22.0511V12.9481C7.72412 11.9125 6.79263 11 5.72401 11C4.65561 11 3.72412 11.9125 3.72412 12.9481V22.0511C3.72412 23.0921 4.65561 24 5.72401 24Z" fill="white"/>
<path d="M23.1227 0.19567C22.856 -0.0652234 22.4588 -0.0652234 22.192 0.19567L20.4023 1.92906L20.3197 2.00919C19.2585 1.49279 18.0687 1.2349 16.7437 1.23241C16.7372 1.23241 16.7308 1.2322 16.7243 1.2322H16.7241C16.7174 1.2322 16.7112 1.23241 16.7045 1.23241C15.3796 1.2349 14.1897 1.49279 13.1286 2.00919L13.0458 1.92906L11.2562 0.19567C10.9892 -0.0652234 10.5923 -0.0652234 10.3255 0.19567C10.0585 0.455114 10.0585 0.840139 10.3255 1.09938L12.0567 2.78204C11.4989 3.14397 10.9931 3.58687 10.5532 4.09344C9.50004 5.30649 8.82832 6.88521 8.73595 8.59572C8.73509 8.61353 8.73328 8.63113 8.73243 8.64893C8.72678 8.7654 8.72412 8.88249 8.72412 9H24.7241C24.7241 8.88249 24.7212 8.7654 24.7158 8.64893C24.715 8.63113 24.7131 8.61353 24.7121 8.59572C24.6199 6.88521 23.948 5.30639 22.8949 4.09354C22.4552 3.58698 21.9491 3.14408 21.3913 2.78214L23.1227 1.09948C23.3897 0.840139 23.3897 0.455114 23.1227 0.19567ZM13.3889 6.73592C12.8368 6.73592 12.3892 6.30099 12.3892 5.76451C12.3892 5.22802 12.8368 4.79309 13.3889 4.79309C13.941 4.79309 14.3885 5.22802 14.3885 5.76451C14.3885 6.30099 13.941 6.73592 13.3889 6.73592ZM20.0594 6.73592C19.5073 6.73592 19.0597 6.30099 19.0597 5.76451C19.0597 5.22802 19.5073 4.79309 20.0594 4.79309C20.6114 4.79309 21.059 5.22802 21.059 5.76451C21.059 6.30099 20.6114 6.73592 20.0594 6.73592Z" fill="white"/>
</svg>
