<svg width="33" height="32" viewBox="0 0 33 32" fill="none" xmlns="http://www.w3.org/2000/svg">
<path d="M22.6613 0C20.8486 0.122563 18.7298 1.25679 17.4951 2.73378C16.3687 4.07366 15.4422 6.06376 15.8034 7.99776C17.7841 8.058 19.8306 6.89677 21.0164 5.39485C22.1258 3.9968 22.9652 2.01917 22.6613 0Z" fill="white"/>
<path d="M28.8094 10.3109C27.1914 8.21582 24.9174 7 22.77 7C19.9349 7 18.7357 8.40146 16.7661 8.40146C14.7351 8.40146 13.1922 7.00408 10.7404 7.00408C8.33215 7.00408 5.7678 8.52385 4.14187 11.1228C1.85609 14.7825 2.24726 21.6633 5.95154 27.5241C7.27717 29.6212 9.04733 31.9794 11.3627 31.9998C13.4233 32.0202 14.0041 30.635 16.7957 30.6208C19.5872 30.6044 20.1167 32.0181 22.1733 31.9957C24.4907 31.9773 26.3577 29.3641 27.6833 27.2671C28.6336 25.7636 28.9872 25.0068 29.7241 23.3095C24.3643 21.2022 23.5049 13.3321 28.8094 10.3109Z" fill="white"/>
</svg>
