<svg width="48" height="48" viewBox="0 0 48 48" fill="none" xmlns="http://www.w3.org/2000/svg">
<path d="M34.7378 25.7072C34.6914 20.5504 38.9602 18.0416 39.1554 17.9248C36.7378 14.4 32.9906 13.9184 31.6738 13.88C28.5266 13.5488 25.4738 15.7632 23.8706 15.7632C22.2354 15.7632 19.7666 13.912 17.1058 13.9664C13.6818 14.0192 10.4786 16.0016 8.72175 19.08C5.09615 25.3568 7.80015 34.5808 11.2738 39.6544C13.0114 42.1392 15.0418 44.9136 17.6994 44.816C20.2994 44.7088 21.2706 43.1584 24.4082 43.1584C27.517 43.1584 28.429 44.816 31.1394 44.7536C33.9298 44.7088 35.6866 42.2576 37.3634 39.7504C39.3714 36.9024 40.1778 34.0976 40.2098 33.9536C40.1442 33.9312 34.7906 31.888 34.7378 25.7072Z" fill="white"/>
<path d="M29.618 10.5424C31.0164 8.7936 31.9732 6.4144 31.7076 4C29.6836 4.0896 27.1524 5.4 25.6948 7.1104C24.4052 8.6176 23.2532 11.088 23.5508 13.4112C25.8244 13.5808 28.1588 12.264 29.618 10.5424Z" fill="white"/>
</svg>
