<svg width="48" height="48" viewBox="0 0 48 48" fill="none" xmlns="http://www.w3.org/2000/svg">
<path d="M22.5321 22.8996L6.15234 40.2857C6.15296 40.2893 6.15419 40.2923 6.15477 40.296C6.65712 42.184 8.38151 43.5741 10.428 43.5741C11.2461 43.5741 12.0142 43.3529 12.6729 42.9646L12.7252 42.934L31.1637 32.2941L22.533 22.8994" fill="#EB3131"/>
<path d="M39.1053 19.9397L39.0896 19.9289L31.1291 15.3141L22.1606 23.2947L31.1603 32.2933L39.0788 27.7243C40.467 26.9749 41.4095 25.5113 41.4095 23.8236C41.4095 22.148 40.4797 20.6917 39.1052 19.9398" fill="#F6B60B"/>
<path d="M6.15023 7.28717C6.05176 7.65029 6 8.03064 6 8.4256V39.1486C6 39.5428 6.05115 39.9245 6.15085 40.2863L23.0961 23.3444L6.15085 7.28761" fill="#5778C5"/>
<path d="M22.6545 23.7871L31.1332 15.3108L12.7155 4.63238C12.046 4.23141 11.2647 4 10.4286 4C8.38213 4 6.65541 5.39265 6.15296 7.28279C6.15234 7.28463 6.15234 7.2859 6.15234 7.28752L22.6545 23.7874" fill="#3BAD49"/>
</svg>
