<svg width="1600" height="285" viewBox="0 0 1600 285" fill="none" xmlns="http://www.w3.org/2000/svg">
<path d="M1719.44 80.124C1714.08 76.591 1712.93 71.67 1715.8 66.8751C1707.25 76.3386 1693.21 78.042 1681.91 83.2154C1680.64 72.9318 1681.53 63.7838 1688.42 56.8439C1676.17 58.1688 1662.45 60.0614 1651.34 64.3515C1638.33 69.3987 1629.71 81.7644 1614.84 82.4584C1614.39 83.9725 1614.97 85.9283 1614.46 87.3162C1615.1 74.1936 1623.52 66.8121 1619.56 53.7525C1616.56 43.7212 1626.77 29.8415 1632.33 18.4223C1625.94 26.2454 1601.69 28.5166 1585.99 45.1723C1578.53 53.1216 1577.38 63.3422 1567.3 67.9477C1565.25 56.4023 1555.11 42.5856 1563.15 31.8603C1555.94 35.7088 1546.49 39.0526 1541.07 45.2985C1534.3 53.1216 1534.75 63.4053 1526.71 69.525C1524.79 63.5314 1533.6 35.7719 1540.49 29.7784C1509.86 36.0874 1501.5 42.838 1490.97 58.5473C1488.8 39.8728 1499.2 11.3562 1516.3 0C1490.14 14.6368 1470.61 34.0054 1445.08 52.6799C1420.38 70.7867 1400.09 68.831 1363.71 97.2214C1366.46 88.515 1378.33 53.8156 1386.75 48.3899C1360.59 57.0332 1305.13 68.7048 1292.24 93.2467C1283.37 84.4772 1294.21 53.7525 1304.43 33.5638C1290.19 38.8633 1249.54 53.7525 1231.42 74.8245C1220.5 87.4425 1205.95 86.3068 1194.98 99.4926C1189.87 94.6978 1188.53 87.5055 1189.3 80.5026C1175.83 77.0957 1161.54 85.739 1151.07 92.9943C1146.98 87.4424 1144.69 84.9819 1147.18 78.2313C1138.37 83.7832 1128.54 88.2626 1118.71 91.4801C1126.12 73.6888 1136.07 50.7873 1158.03 49.3993C1129.18 49.4624 1102.06 54.4465 1076.4 68.2001C1051.06 81.7644 1025.09 82.5845 1003.26 102.647C1007.67 85.045 1028.92 38.2324 1043.28 34.0054C1020.62 32.3651 1000.78 54.6357 983.034 64.667C964.973 74.8875 944.423 78.1682 925.214 84.8557C904.345 92.111 895.793 103.53 879.137 116.716C856.226 134.886 877.86 98.6093 879.392 80.1871C873.138 81.1966 852.716 91.4171 846.908 94.5715C848.695 83.2785 840.909 59.3044 846.206 48.6423C831.719 57.0963 826.423 80.2502 809.894 84.2248C792.471 88.3887 771.539 86.0545 760.562 103.972C759.668 94.9501 783.728 67.5692 770.964 53.6894C753.733 73.6889 731.396 87.127 705.869 96.5905C704.146 80.7549 687.425 70.4713 665.089 89.3982C668.79 74.6352 670.13 58.7366 698.211 41.0715C670.13 42.3333 647.156 54.9512 632.414 79.0515C622.713 94.887 596.164 92.1742 587.677 110.281C582.507 100.754 569.488 93.5621 557.682 94.887C555.639 83.5308 561.447 73.6258 567.063 64.5408C557.299 67.2537 551.81 74.6352 542.876 78.2944C532.346 82.6476 522.518 79.6824 511.732 79.0515C486.268 77.5373 476.568 86.5591 459.847 102.521C465.272 92.6788 468.208 87.7579 469.165 76.4648C470.186 65.1087 462.847 58.2318 473.313 47.9482C452.253 58.6735 442.552 74.509 425.066 82.5845C414.025 87.6948 397.624 95.4548 386.775 103.783C378.606 110.029 376.564 119.555 369.033 126.937C363.226 115.58 347.973 119.807 340.187 128.325C351.866 102.205 318.489 74.3198 339.549 44.6676C322.126 60.5662 285.941 61.0709 266.604 78.7991C249.437 94.5085 243.246 108.199 224.164 115.328C223.526 107.884 223.845 100.313 225.377 93.1205C206.933 92.742 197.169 105.865 186.192 118.42C188.872 105.612 186.32 93.1836 186.001 80.6918C185.745 69.7773 189.128 60.1876 190.085 49.21C177.13 56.3391 176.747 66.9382 168.897 78.5467C160.665 90.7231 147.773 98.6093 136.541 106.496C136.924 104.666 137.434 103.089 137.498 100.944C127.543 98.7355 118.097 102.521 110.694 108.956C111.269 95.5179 108.205 72.1747 126.266 70.1559C104.632 70.5344 83.5077 74.7614 65.1278 87.5055C49.3646 98.4832 40.8129 116.59 20.9014 121.006C21.1566 112.741 22.1778 105.865 26.0707 98.4832C10.8819 99.051 3.09593 112.931 -5.90253 122.52C-1.49902 100.123 -5.4558 75.2661 13.9451 59.0521C-9.73164 53.2478 -25.1758 76.6541 -41.5773 88.4519C-62.3822 103.404 -73.8058 97.1582 -94.4831 107.757C-90.2072 86.6223 -84.4635 75.6446 -75.3374 56.0237C-89.0584 65.0456 -124.861 66.2443 -139.156 74.9507C-154.92 84.6034 -153.707 106.937 -166.662 113.814C-163.854 105.486 -173.505 97.3475 -174.782 88.4519C-196.991 120.691 -167.236 785.607 -166.471 841H1773.75C1796.53 840.18 1777.9 147.188 1793.21 119.429C1804.45 99.0509 1758.3 73.4996 1776.56 61.1971C1757.22 68.9571 1733.42 63.5945 1719.44 80.124Z" fill="#181E29"/>
</svg>
