<svg width="132" height="20" viewBox="0 0 132 20" fill="none" xmlns="http://www.w3.org/2000/svg">
<path d="M0.206909 6.53564L2.49651 8.86243H18.1553V6.53564H0.206909Z" fill="#808080"/>
<path d="M13.7077 19.9476H18.1553V17.647H11.4181L13.7077 19.9476Z" fill="#808080"/>
<path d="M8.1021 14.4054H18.1553V12.0786H5.8125L8.1021 14.4054Z" fill="#808080"/>
<path d="M108.871 8.0784C107.897 6.90193 106.002 6.30063 103.949 6.64049C102.133 6.92808 100.976 8.13068 100.186 9.30715C100.449 6.43135 100.265 3.08495 100.318 0C98.8175 0 97.2911 0 95.791 0C95.791 6.66664 95.791 13.3071 95.791 19.9738C97.2911 19.9738 98.8175 19.9738 100.318 19.9738C100.633 16.6274 99.3438 11.0849 102.107 10.1437C102.633 9.96074 103.449 9.90845 104.081 10.1699C105.344 10.6928 105.265 12.6013 105.265 14.4575C105.265 16.3137 105.265 18.1437 105.265 19.9215C106.739 19.9999 108.344 19.9215 109.844 19.9476C109.897 17.9084 109.871 15.6601 109.871 13.4901C109.897 11.2941 109.897 9.33329 108.871 8.0784Z" fill="#808080"/>
<path d="M31.9192 8.96738C30.9717 7.52948 29.7085 6.37915 27.2084 6.56216C24.8661 6.71902 23.2871 8.05235 22.4976 9.77783C21.6818 11.5817 21.6028 14.4314 22.366 16.4183C23.1029 18.353 24.603 19.7124 26.6557 19.9477C29.2874 20.2614 30.8138 19.0327 31.9455 17.5425C31.9455 18.1961 31.9455 19.3464 31.9455 20C33.314 20 34.6562 20 36.0247 20C36.0247 15.817 36.0247 11.1373 36.0247 6.98046C34.6562 6.98046 33.2877 6.98046 31.9192 6.98046C31.9192 7.60791 31.9192 8.28764 31.9192 8.96738ZM30.6033 16.0785C29.7875 16.4706 28.419 16.4706 27.6821 16.0523C26.8926 15.5817 26.3399 14.7974 26.2346 13.6994C26.0504 11.6863 26.9452 10.2223 28.7611 10.0393C29.7875 9.9347 30.7086 10.2223 31.2612 10.7713C32.7613 12.2092 32.235 15.3203 30.6033 16.0785Z" fill="#808080"/>
<path d="M61.7629 6.51C59.3944 6.64072 57.7364 7.73875 56.6837 9.22894C55.6047 10.7453 55.1836 13.1243 55.7626 15.3204C56.2363 17.1766 57.5521 18.693 59.2628 19.4511C61.1313 20.2616 64.0525 20.1309 65.5789 19.1374C65.5789 17.8825 65.5789 16.6015 65.5789 15.3466C64.9473 15.8694 64.2894 16.3662 63.1577 16.3923C61.9734 16.4185 61.0787 15.9479 60.5523 15.1897C59.8681 14.2485 59.8417 12.7061 60.2891 11.6864C60.7102 10.693 61.6576 9.93482 63.0261 9.96096C63.9736 9.96096 64.6578 10.3793 65.1841 10.7714C65.3157 10.876 65.4736 11.0329 65.5789 11.0067C65.5789 9.8041 65.5789 8.57535 65.5789 7.37274C64.6052 6.71915 63.3683 6.40542 61.7629 6.51Z" fill="#808080"/>
<path d="M76.948 8.91523C75.9742 7.45118 74.7373 6.32701 72.2109 6.48387C68.5791 6.71916 66.7895 9.62111 66.8158 13.2289C66.8158 17.1766 69.0791 20.6276 73.4741 19.8694C75.1584 19.5819 76.1321 18.6145 76.9743 17.4642C76.9743 18.1439 76.9743 19.2943 76.9743 19.974C78.3428 19.974 79.685 19.974 81.0535 19.974C81.0535 15.791 81.0535 11.0852 81.0535 6.90217C79.685 6.90217 78.3165 6.90217 76.948 6.90217C76.948 7.5819 76.948 8.26164 76.948 8.91523ZM75.3953 16.157C73.711 16.7845 72.0003 15.9479 71.474 14.6668C70.9213 13.3335 71.2635 11.3727 72.2372 10.5884C72.5793 10.3008 73.053 10.0917 73.7899 10.0133C75.79 9.83026 76.9743 10.9806 77.1322 12.6538C77.2901 14.51 76.6058 15.7126 75.3953 16.157Z" fill="#808080"/>
<path d="M89.5013 11.5295C88.7907 11.3203 87.738 11.085 87.6591 10.4053C87.5801 9.77785 88.2907 9.49027 88.8697 9.43798C90.3961 9.33341 91.6067 9.90857 92.4751 10.4314C92.5804 10.5099 92.712 10.6144 92.8699 10.5883C93.1857 9.62099 93.4752 8.62753 93.7647 7.60793C92.1067 6.90205 90.3171 6.32689 88.2117 6.4576C86.1853 6.58832 84.58 7.45106 83.922 8.78439C83.7378 9.17655 83.5536 9.93471 83.5799 10.5622C83.6325 12.8889 85.5537 13.7255 87.4749 14.2223C87.9749 14.353 88.5012 14.4576 89.0276 14.6406C89.3697 14.7713 90.0276 14.9804 90.1329 15.5295C90.2908 16.3661 89.5013 16.6798 88.817 16.7321C86.9222 16.8889 85.3695 16.1046 84.3431 15.3726C84.1852 15.268 84.0799 15.0589 83.8694 15.0589C83.6062 16.2092 83.2904 17.2811 82.9746 18.3791C84.7642 19.4772 87.317 20.1569 89.9224 19.8432C92.2909 19.5556 94.2384 18.1177 94.2384 15.6079C94.2121 12.8367 91.7909 12.1831 89.5013 11.5295Z" fill="#808080"/>
<path d="M49.1306 9.93472C49.1306 8.94126 49.1306 7.9478 49.1306 6.95434C47.6832 6.95434 46.2094 6.95434 44.762 6.95434C44.762 11.2942 44.762 15.634 44.762 19.9739C46.2884 19.9739 47.8411 19.9739 49.3675 19.9739C49.578 16.8889 48.7359 13.0981 50.4465 11.4772C51.2623 10.719 53.0256 10.3269 54.5257 10.8759C54.6836 9.49028 54.8415 8.10467 54.9467 6.71905C51.7097 6.22232 49.9991 7.9478 49.1306 9.93472Z" fill="#808080"/>
<path d="M40.288 0.261357C38.9458 0.392076 37.9195 1.35939 37.9984 2.87573C38.051 4.28748 39.1827 5.33323 40.5775 5.33323C41.946 5.33323 42.9724 4.28748 43.1039 3.13716C43.2882 1.33325 41.9723 0.0783514 40.288 0.261357Z" fill="#808080"/>
<path d="M38.2353 7.05902C38.2353 11.3727 38.2353 15.6864 38.2353 20.0001C39.7881 20.0001 41.3145 20.0001 42.8672 20.0001C42.8672 15.6603 42.8672 11.3204 42.8672 6.98059C41.3408 6.98059 39.7881 6.98059 38.2617 6.98059C38.209 6.95444 38.2353 7.00673 38.2353 7.05902Z" fill="#808080"/>
<path d="M131.793 6.53564L129.503 8.86243H113.845V6.53564H131.793Z" fill="#808080"/>
<path d="M118.292 19.9476H113.845V17.647H120.582L118.292 19.9476Z" fill="#808080"/>
<path d="M123.898 14.4054H113.845V12.0786H126.188L123.898 14.4054Z" fill="#808080"/>
</svg>
