<svg width="220" height="72" viewBox="0 0 220 72" fill="none" xmlns="http://www.w3.org/2000/svg">
<g clip-path="url(#clip0_2825_4553)">
<path d="M46.2179 62.7056C45.0428 62.9222 43.941 63.0664 42.9861 63.2107C42.0313 63.2829 41.0765 63.4273 40.1951 63.5716C39.3137 63.6438 38.4323 63.7159 37.5509 63.7881C36.6695 63.8603 35.6412 64.0046 34.6129 64.149C33.9518 64.2211 33.2174 64.2211 32.5563 64.3655C31.8953 64.4377 30.867 64.5098 29.5449 64.7262L31.3811 56.0663C31.6015 55.1282 31.7484 54.2621 31.8953 53.3962C32.1156 52.458 32.2625 51.592 32.4094 50.726C32.6298 50.0765 32.7767 49.427 32.9236 48.7054C33.144 47.9115 33.2909 47.1899 33.4378 46.6847L31.3811 47.0455C31.6015 45.3135 31.8953 43.8702 32.1156 42.7155C32.2625 42.066 32.4094 41.5608 32.4829 41.0557C32.6298 40.5505 32.7032 40.1175 32.8501 39.8288C32.9971 39.4681 33.0705 39.1794 33.2174 38.8907C33.658 38.8185 34.1722 38.6742 34.9067 38.5299C35.6412 38.3133 36.3757 38.169 37.1102 38.0968C37.9182 37.9526 38.5057 37.8804 39.1668 37.7361C39.8279 37.5917 40.4155 37.5196 40.7092 37.4474C41.4437 37.303 42.1782 37.1587 43.0596 37.0144C43.941 36.7978 44.8224 36.6535 45.7038 36.5813C45.8507 36.5092 46.071 36.5092 46.5118 36.5092C47.0259 36.4371 47.4665 36.3649 47.9073 36.2927C48.2011 36.2206 48.6418 36.1484 49.009 36.1484C49.4498 36.0762 49.7435 36.0762 49.8169 36.0762C49.8169 36.3649 49.8169 36.7257 49.8169 37.303C49.8169 37.8082 49.8904 38.3855 49.7435 39.035C49.6701 39.6845 49.6701 40.4062 49.5232 41.2C49.4498 41.9939 49.2294 42.7876 49.009 43.6537C48.7887 43.6537 48.348 43.7259 47.4666 43.8702C46.6587 43.9424 45.8507 44.0867 44.8959 44.231C43.941 44.3753 43.133 44.5196 42.3986 44.664C41.5906 44.7362 41.1499 44.8805 41.0765 44.8805L40.342 48.128C41.003 48.0558 41.5906 47.9115 42.1048 47.8393C42.6924 47.7671 43.2065 47.695 43.6472 47.6228C44.1614 47.5506 44.6021 47.4785 45.1162 47.4063C45.6303 47.3342 46.1445 47.1899 46.7321 47.1177C46.7321 47.4785 46.8056 48.3445 46.6587 49.427C46.5852 50.5816 46.4383 51.7364 46.2179 53.0353C45.9241 53.1075 45.5569 53.1075 45.1162 53.2518C44.749 53.324 44.3083 53.4684 43.8676 53.5405C43.5003 53.6126 43.0596 53.6848 42.619 53.7569C42.2517 53.8291 41.9579 53.9013 41.6641 53.9735C41.2968 54.0456 40.8561 54.1178 40.2686 54.2621C39.6809 54.3343 39.1668 54.4787 38.6526 54.6952C38.5792 55.1282 38.5792 55.4889 38.4323 55.7776C38.3588 55.9941 38.2853 56.2828 38.2119 56.7158C38.873 56.6437 39.4606 56.6437 39.9748 56.4993C40.6357 56.355 41.2234 56.2828 41.811 56.1385L46.3648 55.2003C46.4383 55.4168 46.4383 55.7776 46.4383 56.2828C46.5118 56.7879 46.5118 57.2931 46.5118 57.9427C46.5118 58.5921 46.5118 59.3138 46.4383 60.1076C46.5118 60.9736 46.3648 61.8396 46.2179 62.7056Z" fill="#646A76"/>
<path d="M64.2137 54.8379C64.2872 55.4873 64.2872 56.4256 64.2137 57.7967C64.1403 59.1679 63.9935 60.539 63.8466 61.9823C62.8917 62.1988 61.8634 62.3432 60.5413 62.6319C59.2927 62.9205 57.9706 63.137 56.5016 63.4256C55.106 63.6422 53.637 63.8587 52.1681 64.0752C50.699 64.2917 49.3035 64.2916 47.9814 64.2916C47.9814 64.2195 48.0548 63.7865 48.2017 63.0648C48.3487 62.271 48.4956 61.405 48.7159 60.3225C48.9363 59.1679 49.2301 58.0132 49.4504 56.642C49.7443 55.2708 49.9646 54.044 50.2583 52.6729C50.5521 51.3017 50.8459 50.1471 51.0663 48.9923C51.3601 47.8377 51.5805 46.9718 51.7274 46.25C51.8008 45.8892 51.9477 45.3119 52.1681 44.4459C52.3885 43.5077 52.6087 42.6417 52.8291 41.7036C53.1229 40.6933 53.3432 39.8272 53.5636 38.9613C53.784 38.023 54.0043 37.4458 54.0778 37.1571C54.445 37.1571 54.8857 37.0849 55.4733 37.1571C56.0609 37.1571 56.6485 37.1571 57.3095 37.2293C57.9706 37.3014 58.7051 37.3014 59.3662 37.4458C60.1006 37.5179 60.7617 37.6623 61.2758 37.7344C61.2024 37.8787 61.0555 38.3117 60.8351 39.0334C60.6148 39.755 60.4679 40.4768 60.174 41.3427C59.9537 42.1366 59.7333 42.9304 59.513 43.6521C59.2927 44.3737 59.1458 44.8789 59.0723 45.0954C58.6316 46.8996 58.2644 48.7037 57.7502 50.58C57.3095 52.3842 56.9423 54.2605 56.6485 56.0647C57.236 55.9925 57.8971 55.9204 58.4847 55.8482C59.1458 55.776 59.8068 55.6317 60.3944 55.4873C60.4678 55.4152 60.6882 55.4152 61.0555 55.343C61.4227 55.2708 61.8634 55.2708 62.3041 55.1265C62.8182 55.0543 63.112 54.9821 63.5528 54.91C63.8466 54.91 64.0669 54.8379 64.2137 54.8379Z" fill="#646A76"/>
<path d="M81.8416 54.8379C81.915 55.4873 81.915 56.4256 81.8416 57.7967C81.7681 59.1679 81.6213 60.539 81.4744 61.9823C80.5195 62.1988 79.4912 62.3432 78.1691 62.6319C76.9205 62.9205 75.5984 63.137 74.1294 63.4256C72.7338 63.57 71.2649 63.7865 69.7959 64.003C68.3269 64.2195 66.9314 64.2916 65.6827 64.2916C65.6827 64.2195 65.7561 63.7865 65.903 63.0648C66.0499 62.271 66.1968 61.405 66.4172 60.3225C66.6376 59.1679 66.9314 58.0132 67.1517 56.642C67.4455 55.2708 67.6659 54.044 67.9596 52.6729C68.2534 51.3017 68.5472 50.1471 68.7676 48.9923C69.0614 47.8377 69.2818 46.9718 69.4287 46.25C69.5021 45.8892 69.649 45.3119 69.8694 44.4459C70.0896 43.5077 70.31 42.6417 70.5304 41.7036C70.8242 40.6933 71.0445 39.8272 71.2649 38.9613C71.4852 38.023 71.7056 37.4458 71.779 37.1571C72.1463 37.1571 72.5869 37.0849 73.1746 37.1571C73.7622 37.1571 74.3498 37.1571 75.0108 37.2293C75.6718 37.3014 76.4064 37.3014 77.0673 37.4458C77.8019 37.5179 78.4629 37.6623 78.9771 37.7344C78.9037 37.9509 78.7568 38.3839 78.5364 39.1056C78.316 39.8272 78.1691 40.5489 77.8753 41.4149C77.655 42.2088 77.4346 43.0025 77.2143 43.7243C76.994 44.4459 76.8471 44.9511 76.7736 45.1676C76.3329 46.9718 75.9657 48.7758 75.4515 50.6522C75.0108 52.4564 74.6436 54.3327 74.3498 56.1369C74.9373 56.0647 75.5984 55.9925 76.186 55.9204C76.8471 55.8482 77.5081 55.7038 78.0957 55.5595C78.1691 55.4873 78.3895 55.4873 78.7568 55.4152C79.124 55.343 79.5646 55.343 80.0054 55.1987C80.5195 55.1265 80.8133 55.0543 81.2541 54.9821C81.4744 54.91 81.7681 54.8379 81.8416 54.8379Z" fill="#646A76"/>
<path d="M10.5219 34.9207L0.753113 32.9722L2.5159 62.6326L11.844 64.7976L11.4225 53.9998H18.4955L17.5221 64.216L25.3097 64.7976L30.6637 32.1079L19.9557 34.0539L18.9823 47.189L11.1947 48.162L10.5219 34.9207Z" fill="#646A76"/>
<path d="M139.132 62.7767C139.499 61.9108 139.866 61.0447 140.307 60.1788C140.821 59.3127 141.262 58.5189 141.629 57.8694C142.143 57.0034 142.657 56.2095 143.171 55.5601C144.126 56.0652 145.228 56.4982 146.55 56.9313C147.945 57.2921 149.34 57.5807 151.03 57.5807C151.617 57.5807 152.058 57.5085 152.572 57.3643C153.087 57.1478 153.454 56.7869 153.674 56.2817C153.748 56.0652 153.674 55.9209 153.307 55.7766C152.94 55.5601 152.499 55.4158 151.911 55.2714C151.324 55.0549 150.663 54.9106 150.002 54.6941C149.34 54.4775 148.753 54.3332 148.165 54.1168C147.504 53.9003 146.844 53.6116 146.036 53.1786C145.228 52.6735 144.494 52.2404 143.906 51.5187C143.318 50.8693 142.878 50.0754 142.51 49.1373C142.217 48.1991 142.143 47.0444 142.437 45.8176C142.804 44.0134 143.465 42.6423 144.347 41.3433C145.228 40.1165 146.256 38.8896 147.431 37.8071C148.092 37.1576 148.826 36.5803 149.634 36.003C150.516 35.3535 151.397 34.8483 152.279 34.3431C153.233 33.838 154.188 33.4772 155.07 33.1163C156.025 32.7555 156.833 32.5389 157.567 32.4668C158.081 32.3947 158.669 32.3225 159.257 32.3946C159.918 32.3946 160.505 32.4668 161.019 32.6111C161.607 32.7555 162.121 32.972 162.562 33.2607C163.076 33.5493 163.37 34.0544 163.517 34.6318C163.884 35.7864 163.958 37.2298 163.59 38.8896C163.517 39.3948 163.443 39.8278 163.223 40.5494C163.076 41.199 162.929 41.7763 162.709 42.4258C162.488 43.0753 162.342 43.6526 162.195 44.23C161.974 44.8073 161.827 45.3124 161.681 45.6733C161.019 45.7454 160.358 45.7454 159.624 45.7454C158.963 45.7454 158.302 45.6733 157.641 45.6733C156.98 45.6011 156.392 45.6011 155.878 45.6011C155.364 45.5289 154.923 45.4568 154.629 45.3846C154.702 45.1681 154.849 44.8073 154.996 44.3743C155.143 43.8691 155.217 43.4361 155.364 42.931C155.51 42.3536 155.584 41.8484 155.657 41.3433C155.731 40.8381 155.804 40.5494 155.731 40.4051C155.731 40.1887 155.51 40.1887 154.923 40.4773C154.409 40.7659 153.821 41.1268 153.16 41.7042C152.499 42.2093 151.911 42.7866 151.397 43.4361C150.81 44.0856 150.442 44.663 150.369 45.1681C150.222 45.8176 150.369 46.395 150.883 46.8279C151.25 47.1888 151.764 47.4053 152.279 47.6218C152.793 47.8383 153.38 47.9826 153.895 48.1269C154.482 48.2712 154.996 48.4156 155.584 48.5599C156.172 48.6321 156.759 48.8486 157.273 49.0651C158.008 49.2816 158.742 49.5703 159.477 49.8589C160.285 50.1476 160.873 50.7249 161.24 51.5187C161.534 52.0239 161.681 52.457 161.681 52.8177C161.754 53.1064 161.754 53.5394 161.681 54.0446C161.681 54.4054 161.607 54.8384 161.46 55.2714C161.387 55.7044 161.24 56.0652 161.166 56.3539C160.285 58.3746 159.257 60.0344 157.861 61.3334C156.539 62.5602 154.776 63.4984 152.425 64.0757C151.911 64.22 151.324 64.2922 150.663 64.3644C150.002 64.4365 149.414 64.4365 148.753 64.4365C146.991 64.4365 145.448 64.2922 144.053 64.0757C143.098 63.8592 142.363 63.7148 141.629 63.5706C140.747 63.5706 140.013 63.2097 139.132 62.7767Z" fill="#646A76"/>
<path d="M186.287 44.23C186.214 45.096 185.92 45.8898 185.553 46.7558C185.185 47.6218 184.745 48.3435 184.084 48.9929C182.835 50.2197 181.586 51.2301 180.044 52.2404C178.575 53.1786 177.032 53.9724 175.49 54.694C174.241 55.2714 172.992 55.7766 171.744 56.2096C171.744 56.3539 171.744 56.4982 171.671 56.7147C171.597 56.9313 171.524 57.1478 171.451 57.5808C171.377 57.9415 171.23 58.5189 171.083 59.2406C170.937 59.8901 170.716 60.9005 170.496 62.0551C170.422 62.4159 170.349 62.7045 170.276 63.0654C170.202 63.3541 170.202 63.5706 170.129 63.7149C168.806 63.8593 167.484 63.9314 166.236 64.0036C164.987 64.0036 164.032 64.0758 163.297 64.0758C163.444 63.1376 163.665 62.0551 163.885 60.7561C164.179 59.3849 164.399 58.1581 164.693 56.7147C164.987 55.2714 165.281 53.9003 165.575 52.5291C165.942 51.158 166.236 49.9312 166.383 48.9208C166.456 48.5599 166.603 48.0548 166.676 47.3331C166.823 46.5393 166.97 45.8176 167.19 45.0238C167.264 44.5186 167.411 43.9413 167.558 43.4362L165.795 43.364C165.868 43.0031 166.015 42.4979 166.162 41.9207C166.382 41.3433 166.456 40.6938 166.676 40.0443C166.897 39.3948 167.044 38.6732 167.264 38.0236C167.484 37.302 167.705 36.6525 167.925 36.0751C168.439 36.0751 169.174 36.003 170.276 36.1473C171.377 36.2195 172.552 36.2916 173.947 36.5082C175.416 36.7247 176.885 37.0133 178.575 37.4464C180.264 37.8793 181.88 38.5288 183.496 39.2505C183.863 39.3948 184.231 39.6113 184.598 39.9722C185.039 40.333 185.406 40.6217 185.553 40.9825C185.92 41.5598 186.214 42.065 186.287 42.4979C186.361 42.931 186.361 43.5083 186.287 44.23ZM173.506 48.7764C173.874 48.7043 174.314 48.4877 174.902 48.2713C175.49 48.0548 176.004 47.7661 176.518 47.5496C177.106 47.2609 177.546 46.9722 177.914 46.6837C178.354 46.3228 178.575 46.0341 178.648 45.7454C178.722 45.5289 178.575 45.3124 178.281 45.096C177.987 44.8073 177.693 44.663 177.473 44.5908C177.253 44.5186 176.959 44.3743 176.371 44.23C175.857 44.0134 175.196 43.8691 174.535 43.7249C174.535 43.7249 174.461 43.7969 174.388 44.23C174.314 44.5908 174.241 44.9517 174.168 45.3846C174.094 45.7454 174.021 46.1063 173.947 46.4672C173.874 46.828 173.874 46.9722 173.874 47.0444C173.8 47.3331 173.8 47.6218 173.8 47.9105C173.653 48.1992 173.58 48.4877 173.506 48.7764Z" fill="#646A76"/>
<path d="M191.795 62.4881C191.134 62.5603 190.399 62.6325 189.592 62.7046C188.784 62.7768 188.049 62.7768 187.388 62.9212C186.727 62.9933 185.992 62.9933 185.405 63.0655C184.818 63.0655 184.304 63.1377 183.863 63.1377C183.937 62.9933 183.937 62.849 183.937 62.5603C184.01 62.2716 184.084 61.9109 184.157 61.6222C184.23 61.117 184.377 60.251 184.671 59.0963C184.964 57.8695 185.331 56.4983 185.625 54.9107C185.992 53.2508 186.36 51.591 186.727 49.859C187.094 48.127 187.535 46.395 187.829 44.8795C188.196 43.2918 188.49 41.9929 188.784 40.8382C189.077 39.6114 189.298 38.8175 189.371 38.4568C189.738 38.3846 190.253 38.3846 190.84 38.3124C191.428 38.2403 192.089 38.0959 192.75 38.0959C193.485 38.0237 194.219 38.0237 194.954 37.9516C195.762 37.8794 196.496 37.8794 197.231 37.8794C197.231 37.8794 197.304 37.9516 197.157 38.2403C197.084 38.4568 197.084 38.6011 197.01 38.8897C196.937 39.1062 196.937 39.3227 196.79 39.5392C196.716 39.7558 196.716 39.9001 196.716 39.9001C196.57 40.4052 196.349 41.2712 196.055 42.3537C195.762 43.4362 195.468 44.5187 195.174 45.7456C194.88 46.9724 194.66 48.0548 194.366 49.2096C194.146 50.292 193.925 51.0859 193.778 51.6632C193.264 53.9004 192.97 55.8488 192.603 57.5086C192.53 59.1685 192.162 60.8283 191.795 62.4881Z" fill="#646A76"/>
<path d="M215.446 57.0768C215.446 57.2211 215.446 57.5098 215.372 57.9427C215.299 58.3036 215.299 58.7366 215.152 59.314C215.079 59.8191 215.079 60.2521 215.005 60.7573C214.932 61.1902 214.932 61.5511 214.858 61.6954C214.124 61.9841 213.389 62.2728 212.655 62.5614C211.92 62.7779 211.259 62.9944 210.524 63.2109C209.863 63.4274 209.129 63.4996 208.615 63.644C208.027 63.7161 207.513 63.8605 207.146 63.9326C206.999 63.4274 206.852 62.8501 206.705 62.2728C206.632 61.6233 206.485 60.9737 206.338 60.3243C206.264 59.7469 206.117 59.1696 205.97 58.5923C205.897 57.9427 205.75 57.2933 205.677 56.6438C205.603 56.2108 205.53 55.7778 205.383 55.3448C205.309 54.8396 205.089 54.2623 204.795 53.4684C204.501 54.1901 204.281 54.9118 203.987 55.6335C203.767 56.3551 203.547 57.149 203.327 57.8706C203.327 57.9427 203.327 58.1593 203.254 58.4479C203.18 58.7366 203.18 59.0253 203.033 59.3861C202.886 59.7469 202.886 60.1799 202.813 60.613C202.739 60.9737 202.593 61.4068 202.519 61.8398C202.446 62.2006 202.446 62.4893 202.299 62.7779C202.225 63.0666 202.225 63.2831 202.152 63.3553C201.491 63.4274 200.756 63.5718 200.022 63.644C199.287 63.7161 198.626 63.7161 197.965 63.7883C197.304 63.8605 196.716 63.8605 196.202 63.8605C195.688 63.8605 195.247 63.9326 194.88 63.9326C194.88 63.9326 194.88 63.7161 194.954 63.3553C195.027 62.9222 195.174 62.4892 195.247 62.0563C195.321 61.5511 195.394 61.1902 195.468 60.8295C195.541 60.3965 195.615 60.1799 195.615 60.1799C195.688 59.8191 195.835 59.2418 195.982 58.5201C196.202 57.7263 196.423 56.8603 196.643 55.9222C196.937 54.9839 197.157 54.0458 197.377 53.1798C197.671 52.2416 197.818 51.5199 197.892 51.0148C198.112 50.3653 198.185 49.6437 198.406 48.922C198.626 48.1282 198.773 47.3343 198.92 46.6127C198.993 46.2518 199.067 45.891 199.14 45.5301C199.214 45.1694 199.287 44.8085 199.361 44.4477C199.361 44.3755 199.434 44.0868 199.508 43.5817C199.654 43.0043 199.801 42.427 199.875 41.8497C200.022 41.2002 200.095 40.695 200.242 40.1899C200.389 39.6125 200.462 39.3238 200.462 39.2516C200.977 39.1795 201.564 39.0352 202.225 38.9631C202.886 38.8187 203.62 38.7465 204.281 38.6022C205.016 38.4579 205.75 38.3857 206.485 38.3135C207.293 38.2414 208.027 38.097 208.688 38.097C208.835 38.4579 208.909 39.1795 209.055 40.0455C209.202 40.9115 209.349 41.8497 209.423 42.9322C209.57 43.9425 209.717 44.9529 209.79 45.891C209.937 46.8292 210.084 47.5508 210.231 48.056C210.304 47.7673 210.378 47.2621 210.451 46.5405C210.598 45.8188 210.745 45.025 210.965 44.2311C211.112 43.5817 211.259 42.86 211.406 42.2105C211.626 41.4888 211.7 40.8393 211.847 40.262C212.067 39.6125 212.14 39.0351 212.214 38.6022C212.361 38.097 212.434 37.7362 212.508 37.5196C213.316 37.4476 214.344 37.3032 215.74 37.1589C217.209 36.9424 218.604 36.9424 220 36.9424C219.926 37.2311 219.78 37.8083 219.486 38.6744C219.265 39.5403 219.118 40.4786 218.825 41.4888C218.604 42.4991 218.31 43.3652 218.164 44.3033C217.943 45.1694 217.796 45.8188 217.723 46.1075C217.502 47.1178 217.282 48.056 216.988 49.0663C216.768 50.0044 216.474 51.0148 216.254 52.0973C216.107 52.8912 216.033 53.685 215.813 54.551C215.666 55.4891 215.519 56.2829 215.446 57.0768Z" fill="#646A76"/>
<path d="M99.0578 22.4102C103.759 18.6575 103.612 12.812 103.612 12.812C103.612 13.3172 94.7241 17.4307 94.5771 22.2658C94.4302 27.0288 96.7072 29.4825 96.7072 29.4825C96.7072 29.4825 94.3568 26.1629 99.0578 22.4102Z" fill="#646A76"/>
<path d="M99.1316 69.463L98.6906 69.2465C97.5156 68.6692 97.0016 67.2259 97.6626 65.999L99.6455 62.1742C100.233 61.0196 101.702 60.5144 102.951 61.1638L103.391 61.3803C104.567 61.9577 105.081 63.401 104.42 64.6278L102.437 68.4527C101.849 69.6073 100.38 70.0403 99.1316 69.463Z" fill="#646A76"/>
<path d="M114.703 71.5573H114.189C112.867 71.7017 111.692 70.6914 111.545 69.3924L111.177 65.1346C111.031 63.8355 112.059 62.6809 113.381 62.5366L113.895 62.4644C115.217 62.3201 116.393 63.3305 116.539 64.6294L116.907 68.8872C117.054 70.2584 116.025 71.4131 114.703 71.5573Z" fill="#646A76"/>
<path d="M106.551 71.5556L107.065 71.6277C108.387 71.7721 109.561 70.7617 109.708 69.4627L110.076 65.2049C110.223 63.9059 109.194 62.7512 107.873 62.6069L107.359 62.5347C106.037 62.3904 104.861 63.4008 104.715 64.6997L104.347 68.9575C104.274 70.2565 105.229 71.4112 106.551 71.5556Z" fill="#646A76"/>
<path d="M122.194 69.9683L122.635 69.7519C123.81 69.1746 124.324 67.7312 123.663 66.5044L121.68 62.6796C121.092 61.5249 119.623 61.0197 118.375 61.6693L117.934 61.8858C116.76 62.463 116.246 63.9064 116.907 65.1333L118.889 68.958C119.476 70.1127 120.946 70.5457 122.194 69.9683Z" fill="#646A76"/>
<path d="M125.94 14.6899C126.528 16.5663 129.099 26.0201 123.884 28.7624C124.031 24.7933 122.929 9.42177 109.781 0.473145C109.781 0.473145 115.216 11.0095 104.346 27.4634C100.013 32.082 89.142 29.4841 90.1703 45.2164C88.6278 45.4328 86.7182 41.608 86.4978 39.7317C86.4978 39.7317 81.7236 67.66 111.397 67.66C141.071 67.66 146.58 26.5253 125.94 14.6899ZM110.956 54.9587C110.883 55.0309 110.809 55.0309 110.662 55.0309C110.515 55.1031 110.368 55.1753 110.148 55.1753C110.001 55.2474 109.854 55.3196 109.707 55.3196C109.487 55.3918 109.267 55.4639 109.047 55.5361C108.9 55.6083 108.753 55.6083 108.607 55.6805C108.386 55.7526 108.166 55.7526 107.946 55.8248C107.872 55.8248 107.725 55.897 107.652 55.897C107.358 55.9691 106.991 55.9691 106.697 56.0413C106.697 56.0413 106.697 56.0413 106.623 56.0413C106.33 56.0413 106.036 56.0413 105.742 56.0413C105.668 56.0413 105.522 56.0413 105.448 56.0413C105.228 56.0413 105.081 56.0413 104.86 55.9691C104.714 55.9691 104.64 55.897 104.493 55.897C104.346 55.897 104.126 55.8248 103.979 55.7526C103.832 55.7526 103.759 55.6805 103.612 55.6083C103.465 55.5361 103.318 55.5361 103.171 55.4639C103.024 55.3918 102.951 55.3918 102.877 55.3196C102.73 55.2474 102.583 55.1753 102.437 55.1031C102.363 55.0309 102.216 54.9587 102.143 54.8866C101.996 54.8144 101.849 54.6702 101.775 54.598C101.702 54.5258 101.555 54.4536 101.482 54.3093C101.335 54.165 101.261 54.0928 101.114 53.9484C101.041 53.8763 100.894 53.7319 100.821 53.6598C100.674 53.5154 100.6 53.3711 100.453 53.2267C100.38 53.0825 100.306 53.0103 100.16 52.866C100.086 52.7216 99.9389 52.5773 99.8659 52.3608C99.7919 52.2164 99.7189 52.0721 99.6449 51.9278C99.5719 51.7834 99.4249 51.567 99.3519 51.3505C99.2779 51.2061 99.2049 51.0618 99.1309 50.9175C99.0579 50.701 98.984 50.4844 98.837 50.2679C98.764 50.1236 98.69 49.9793 98.617 49.7628C98.617 49.6907 98.544 49.6907 98.544 49.6185V49.5463C98.47 49.2576 98.323 48.9689 98.25 48.6081C98.47 48.6803 98.764 48.8246 98.984 48.8968L99.0579 48.9689C99.1309 48.9689 99.1309 48.9689 99.2049 49.0411C103.465 50.8453 107.064 52.433 110.589 53.9484L110.883 54.0928C111.25 54.4536 111.25 54.8144 110.956 54.9587ZM127.042 49.7628C127.042 49.835 127.042 49.835 127.042 49.7628C127.042 49.835 126.969 49.9072 126.969 49.9793C126.895 50.1236 126.822 50.3401 126.748 50.4844C126.675 50.701 126.602 50.9175 126.455 51.134C126.381 51.2783 126.308 51.4227 126.234 51.567C126.161 51.7834 126.014 51.9278 125.94 52.1443C125.867 52.2886 125.794 52.433 125.72 52.5773C125.647 52.7216 125.5 52.866 125.426 53.0825C125.353 53.2267 125.279 53.2989 125.132 53.4433C125.059 53.5876 124.912 53.7319 124.765 53.8763C124.692 53.9484 124.545 54.0928 124.471 54.165C124.324 54.3093 124.251 54.3815 124.104 54.5258C124.031 54.598 123.884 54.6702 123.81 54.8144C123.663 54.8866 123.59 55.0309 123.443 55.1031C123.37 55.1753 123.223 55.2474 123.149 55.3196C123.002 55.3918 122.855 55.4639 122.709 55.5361C122.635 55.6083 122.488 55.6805 122.415 55.6805C122.268 55.7526 122.121 55.8248 121.974 55.8248C121.827 55.897 121.754 55.897 121.607 55.9691C121.46 56.0413 121.239 56.0413 121.093 56.1135C120.946 56.1135 120.872 56.1856 120.725 56.1856C120.505 56.1856 120.358 56.2578 120.138 56.2578C120.064 56.2578 119.917 56.2578 119.844 56.2578C119.55 56.2578 119.256 56.2578 118.962 56.2578C118.962 56.2578 118.962 56.2578 118.889 56.2578C118.595 56.2578 118.228 56.1856 117.934 56.1135C117.861 56.1135 117.714 56.0413 117.64 56.0413C117.42 55.9691 117.2 55.9691 116.979 55.897C116.832 55.897 116.685 55.8248 116.538 55.7526C116.318 55.6805 116.098 55.6083 115.877 55.5361C115.73 55.4639 115.584 55.4639 115.437 55.3918C115.29 55.3196 115.143 55.3196 114.923 55.2474C114.849 55.2474 114.776 55.1753 114.629 55.1753C114.335 55.0309 114.335 54.6702 114.629 54.598L114.923 54.4536C118.448 52.9382 122.047 51.3505 126.308 49.5463C126.381 49.5463 126.381 49.5463 126.455 49.4741L126.528 49.402C126.748 49.3298 126.969 49.1855 127.263 49.1133C127.263 49.1855 127.189 49.4741 127.042 49.7628Z" fill="#646A76"/>
</g>
<defs>
<clipPath id="clip0_2825_4553">
<rect width="220" height="72" fill="white"/>
</clipPath>
</defs>
</svg>
