<svg width="130" height="40" viewBox="0 0 130 40" fill="none" xmlns="http://www.w3.org/2000/svg">
<g clip-path="url(#clip0_203_5)">
<path d="M125.901 6.79885L117.533 0L101.484 3.04598L97.7759 0L85.5161 1.62644L83.5215 0L56.7208 1.88506L54.4167 0L40.2254 7.04598L34.6142 2.40805C34.6887 2.47126 16.342 6.62069 16.342 6.62069L0.5 33.2069L8.86806 40C12.7961 39.387 16.726 38.8276 20.6579 38.3218C21.2196 36.5862 21.7927 34.8506 22.3773 33.1149L27.7134 37.4425C31.2899 37.0287 34.8721 36.6456 38.4601 36.2931L37.5315 33.7414L40.4489 36.1034C44.3807 35.7203 48.3164 35.3966 52.2559 35.1322L52.9437 33.2586L55.0242 34.9425C63.7247 34.3908 72.4233 34.0517 81.12 33.9253C81.3378 33.3506 81.5613 32.7759 81.7791 32.2414L83.8023 33.908C84.8913 33.908 92.7436 33.908 95.5864 33.977C96.1596 32.454 96.7728 30.931 97.3689 29.4138L103.238 34.1782C107.158 34.3161 111.077 34.5077 114.993 34.7529C113.939 30.228 112.865 25.7318 111.772 21.2644C116.346 16.6667 121.355 11.5345 125.901 6.79885Z" fill="black"/>
<path d="M26.7161 0H2.94164C5.16548 1.79885 9.54439 5.2931 9.52719 5.33908C9.31512 5.97701 1.22791 30.8851 0.5 33.2069C4.4242 32.6015 8.35413 32.0441 12.2898 31.5345C13.4781 27.8793 14.6779 24.2222 15.8892 20.5632C17.0355 23.9272 18.1818 27.2912 19.3281 30.6552C22.9046 30.2337 26.4868 29.8506 30.0748 29.5058C28.854 26.1667 26.4754 19.4943 26.4754 19.4943C36.9011 18.046 43.0854 0 26.7161 0ZM22.7843 12.7012C20.1764 12.8391 18.7722 12.9368 18.4569 12.9483C19.0951 11.0594 19.7427 9.16284 20.3999 7.25862C21.5463 7.22414 22.6926 7.18391 23.8389 7.18391C27.0944 7.18391 26.8078 12.5057 22.7843 12.7126V12.7012Z" fill="#FFE500"/>
<path d="M42.8217 0V0.045977C41.9792 2.24138 32.9291 26.8678 32.0636 29.3103C35.9954 28.9272 39.9311 28.6015 43.8706 28.3333C44.7303 25.977 51.7228 7.10345 54.4166 0C50.5593 0 46.6848 0 42.8217 0Z" fill="#FFE500"/>
<path d="M83.5214 0H57.4429C57.2022 0.632184 55.5228 5.05747 54.8923 6.63218C58.5567 6.5977 62.2192 6.5728 65.8797 6.55747C64.464 7.77011 50.5536 20.0747 49.2181 21.3333C48.3431 23.5862 47.4834 25.8621 46.6389 28.1609C55.3394 27.6092 64.038 27.2682 72.7347 27.1379C73.5791 24.9885 74.4236 22.8391 75.268 20.6897C71.5998 20.7126 67.9335 20.7625 64.2692 20.8391C67.0031 18.4368 79.4807 7.76437 80.8907 6.58621L83.5214 0Z" fill="#FFE500"/>
<path d="M117.533 0H104.568C103.593 0.977012 95.254 9.32759 93.4543 11.1207C94.8585 7.50575 96.3717 3.64943 97.7759 0C93.9243 0 90.0154 0.0344828 86.1581 0C85.946 0.534483 78.7472 18.6839 75.4343 27.0862C76.5233 27.0862 85.797 27.1264 87.2184 27.1494C88.0437 25.046 91.3394 16.592 92.1647 14.5057C93.0627 18.7854 93.9663 23.0766 94.8757 27.3793C98.7923 27.5172 102.709 27.7088 106.625 27.954C105.552 23.4521 104.478 18.9636 103.404 14.4885C104.551 13.3046 114.122 3.55747 117.533 0Z" fill="#FFE500"/>
<path d="M123.786 0.672526H124.456V2.80471H125.253V0.672526H125.924V0.00585938H123.786V0.672526Z" fill="black"/>
<path d="M129.294 0.00585938H128.365L127.889 1.5346L127.402 0.00585938H126.485L126.273 2.80471H127.058L127.133 1.39092L127.58 2.80471H128.193L128.635 1.40241L128.715 2.80471H129.5L129.294 0.00585938Z" fill="black"/>
</g>
<defs>
<clipPath id="clip0_203_5">
<rect width="129" height="40" fill="white" transform="translate(0.5)"/>
</clipPath>
</defs>
</svg>
