<svg width="144" height="80" viewBox="0 0 144 80" fill="none" xmlns="http://www.w3.org/2000/svg">
<rect width="144" height="80" rx="6" fill="white"/>
<g clip-path="url(#clip0_2825_4575)">
<path d="M100.773 62.759V62.8807H100.885C100.91 62.8807 100.931 62.8748 100.947 62.8653C100.961 62.8559 100.969 62.8393 100.969 62.8192C100.969 62.7991 100.961 62.7838 100.947 62.7743C100.931 62.7637 100.91 62.759 100.885 62.759H100.773ZM100.886 62.6738C100.944 62.6738 100.989 62.6868 101.021 62.7128C101.053 62.7389 101.068 62.7743 101.068 62.8192C101.068 62.8571 101.056 62.8877 101.03 62.9126C101.005 62.9363 100.97 62.9516 100.923 62.9575L101.072 63.1289H100.956L100.818 62.9587H100.773V63.1289H100.677V62.6738H100.886ZM100.857 63.2861C100.91 63.2861 100.959 63.2754 101.004 63.2553C101.05 63.2352 101.09 63.2081 101.125 63.1738C101.159 63.1395 101.186 63.0993 101.206 63.0521C101.225 63.0059 101.235 62.9563 101.235 62.9031C101.235 62.8499 101.225 62.8003 101.206 62.7542C101.186 62.7081 101.159 62.6667 101.125 62.6324C101.09 62.5982 101.05 62.571 101.004 62.5509C100.959 62.532 100.91 62.5226 100.857 62.5226C100.804 62.5226 100.753 62.532 100.707 62.5509C100.66 62.571 100.619 62.5982 100.584 62.6324C100.55 62.6667 100.523 62.7081 100.504 62.7542C100.484 62.8003 100.475 62.8499 100.475 62.9031C100.475 62.9563 100.484 63.0059 100.504 63.0521C100.523 63.0993 100.55 63.1395 100.584 63.1738C100.619 63.2081 100.66 63.2352 100.707 63.2553C100.753 63.2754 100.804 63.2861 100.857 63.2861ZM100.857 62.4126C100.926 62.4126 100.99 62.4257 101.052 62.4516C101.112 62.4764 101.163 62.5119 101.209 62.5568C101.254 62.6006 101.29 62.6525 101.316 62.7128C101.342 62.7719 101.355 62.8358 101.355 62.9031C101.355 62.9705 101.342 63.0343 101.316 63.0934C101.29 63.1525 101.254 63.2045 101.209 63.2495C101.163 63.2932 101.112 63.3286 101.052 63.3546C100.99 63.3806 100.926 63.3936 100.857 63.3936C100.786 63.3936 100.721 63.3806 100.66 63.3546C100.599 63.3286 100.546 63.2932 100.501 63.2495C100.456 63.2045 100.421 63.1525 100.395 63.0934C100.369 63.0343 100.356 62.9705 100.356 62.9031C100.356 62.8358 100.369 62.7719 100.395 62.7128C100.421 62.6525 100.456 62.6006 100.501 62.5568C100.546 62.5119 100.599 62.4764 100.66 62.4516C100.721 62.4257 100.786 62.4126 100.857 62.4126ZM54.9124 60.6599C54.9124 59.7923 55.4796 59.0796 56.4065 59.0796C57.2921 59.0796 57.89 59.7616 57.89 60.6599C57.89 61.5581 57.2921 62.2401 56.4065 62.2401C55.4796 62.2401 54.9124 61.5274 54.9124 60.6599ZM58.8994 60.6599V58.1921H57.8286V58.7912C57.489 58.3469 56.9737 58.0679 56.2732 58.0679C54.8923 58.0679 53.8098 59.1529 53.8098 60.6599C53.8098 62.168 54.8923 63.2518 56.2732 63.2518C56.9737 63.2518 57.489 62.9729 57.8286 62.5285V63.1277H58.8994V60.6599ZM95.0833 60.6599C95.0833 59.7923 95.6505 59.0796 96.5775 59.0796C97.4642 59.0796 98.0609 59.7616 98.0609 60.6599C98.0609 61.5581 97.4642 62.2401 96.5775 62.2401C95.6505 62.2401 95.0833 61.5274 95.0833 60.6599ZM99.0715 60.6599V56.21H97.9996V58.7912C97.6599 58.3469 97.1446 58.0679 96.4442 58.0679C95.0633 58.0679 93.9807 59.1529 93.9807 60.6599C93.9807 62.168 95.0633 63.2518 96.4442 63.2518C97.1446 63.2518 97.6599 62.9729 97.9996 62.5285V63.1277H99.0715V60.6599ZM72.1907 59.0288C72.8805 59.0288 73.3239 59.4626 73.4371 60.2261H70.8817C70.9961 59.5134 71.4277 59.0288 72.1907 59.0288ZM72.2119 58.0679C70.7685 58.0679 69.759 59.121 69.759 60.6599C69.759 62.2295 70.8098 63.2518 72.2838 63.2518C73.0256 63.2518 73.7048 63.0662 74.3027 62.5604L73.7779 61.7649C73.3652 62.0947 72.8393 62.2814 72.3451 62.2814C71.6553 62.2814 71.0268 61.9611 70.8723 61.0724H74.5291C74.5397 60.9388 74.5503 60.8041 74.5503 60.6599C74.5397 59.121 73.5916 58.0679 72.2119 58.0679ZM85.1411 60.6599C85.1411 59.7923 85.7083 59.0796 86.6352 59.0796C87.5208 59.0796 88.1187 59.7616 88.1187 60.6599C88.1187 61.5581 87.5208 62.2401 86.6352 62.2401C85.7083 62.2401 85.1411 61.5274 85.1411 60.6599ZM89.1282 60.6599V58.1921H88.0574V58.7912C87.7166 58.3469 87.2025 58.0679 86.502 58.0679C85.1211 58.0679 84.0385 59.1529 84.0385 60.6599C84.0385 62.168 85.1211 63.2518 86.502 63.2518C87.2025 63.2518 87.7166 62.9729 88.0574 62.5285V63.1277H89.1282V60.6599ZM79.094 60.6599C79.094 62.1573 80.1341 63.2518 81.7213 63.2518C82.4631 63.2518 82.9572 63.0863 83.4925 62.6632L82.9784 61.7957C82.5762 62.0852 82.1541 62.2401 81.6894 62.2401C80.8345 62.2295 80.206 61.6101 80.206 60.6599C80.206 59.7096 80.8345 59.0903 81.6894 59.0796C82.1541 59.0796 82.5762 59.2345 82.9784 59.5241L83.4925 58.6565C82.9572 58.2334 82.4631 58.0679 81.7213 58.0679C80.1341 58.0679 79.094 59.1624 79.094 60.6599ZM92.8994 58.0679C92.2815 58.0679 91.8793 58.3575 91.601 58.7912V58.1921H90.5397V63.1277H91.6116V60.3608C91.6116 59.5442 91.9619 59.0903 92.6623 59.0903C92.8793 59.0903 93.1057 59.121 93.3321 59.2144L93.6624 58.2026C93.4253 58.1093 93.1164 58.0679 92.8994 58.0679ZM64.1954 58.5844C63.6801 58.244 62.9702 58.0679 62.1871 58.0679C60.9395 58.0679 60.1365 58.6672 60.1365 59.6481C60.1365 60.453 60.7343 60.9494 61.8357 61.1042L62.3416 61.1764C62.9289 61.2591 63.206 61.4139 63.206 61.6928C63.206 62.0746 62.8145 62.2921 62.0834 62.2921C61.3416 62.2921 60.8062 62.0545 60.4454 61.7756L59.9407 62.6112C60.528 63.0449 61.2697 63.2518 62.0727 63.2518C63.4949 63.2518 64.3192 62.5805 64.3192 61.6409C64.3192 60.7733 63.6706 60.3194 62.5987 60.1646L62.094 60.0914C61.6305 60.0299 61.2591 59.9377 61.2591 59.6068C61.2591 59.2451 61.6093 59.0288 62.1966 59.0288C62.8251 59.0288 63.4336 59.2664 63.732 59.4519L64.1954 58.5844ZM78.0114 58.0679C77.3935 58.0679 76.9914 58.3575 76.7142 58.7912V58.1921H75.6529V63.1277H76.7237V60.3608C76.7237 59.5442 77.0739 59.0903 77.7744 59.0903C77.9913 59.0903 78.2178 59.121 78.4442 59.2144L78.7744 58.2026C78.5373 58.1093 78.2284 58.0679 78.0114 58.0679ZM68.8734 58.1921H67.1223V56.6945H66.0397V58.1921H65.0409V59.173H66.0397V61.4246C66.0397 62.5698 66.4831 63.2518 67.7496 63.2518C68.2143 63.2518 68.7496 63.1076 69.0893 62.87L68.7803 61.9505C68.4607 62.1361 68.1105 62.2295 67.8322 62.2295C67.2968 62.2295 67.1223 61.8985 67.1223 61.4033V59.173H68.8734V58.1921ZM52.8629 63.1277V60.0299C52.8629 58.8634 52.1211 58.0786 50.9253 58.0679C50.2968 58.0573 49.6482 58.2535 49.1942 58.9461C48.8546 58.3988 48.3192 58.0679 47.5669 58.0679C47.0409 58.0679 46.5268 58.2227 46.1247 58.8007V58.1921H45.0527V63.1277H46.1341V60.3916C46.1341 59.5347 46.6082 59.0796 47.3405 59.0796C48.0515 59.0796 48.4112 59.5442 48.4112 60.3809V63.1277H49.4938V60.3916C49.4938 59.5347 49.9878 59.0796 50.699 59.0796C51.4301 59.0796 51.7803 59.5442 51.7803 60.3809V63.1277H52.8629Z" fill="#231F20"/>
<path d="M101.434 46.7132V45.9922H101.246L101.029 46.4874L100.813 45.9922H100.625V46.7132H100.758V46.1695L100.961 46.6387H101.099L101.301 46.1683V46.7132H101.434ZM100.244 46.7132V46.1151H100.484V45.9934H99.8711V46.1151H100.112V46.7132H100.244Z" fill="#F79410"/>
<path d="M80.1132 49.8146H63.8849V20.5835H80.1132V49.8146Z" fill="#FF5F00"/>
<path d="M64.9245 35.1968C64.9245 29.2671 67.6946 23.9851 72.0083 20.5812C68.8538 18.0921 64.8726 16.6064 60.546 16.6064C50.303 16.6064 42 24.9294 42 35.1968C42 45.4641 50.303 53.787 60.546 53.787C64.8726 53.787 68.8538 52.3014 72.0083 49.8123C67.6946 46.4084 64.9245 41.1264 64.9245 35.1968Z" fill="#EB001B"/>
<path d="M102 35.1968C102 45.4641 93.6966 53.787 83.4537 53.787C79.127 53.787 75.1459 52.3014 71.9902 49.8123C76.3051 46.4084 79.0752 41.1264 79.0752 35.1968C79.0752 29.2671 76.3051 23.9851 71.9902 20.5812C75.1459 18.0921 79.127 16.6064 83.4537 16.6064C93.6966 16.6064 102 24.9294 102 35.1968Z" fill="#F79E1B"/>
</g>
<defs>
<clipPath id="clip0_2825_4575">
<rect width="60" height="48" fill="white" transform="translate(42 16)"/>
</clipPath>
</defs>
</svg>
