<svg width="30" height="20" viewBox="0 0 30 20" fill="none" xmlns="http://www.w3.org/2000/svg">
<path d="M7.1758 19.7782V18.4699C7.1758 17.9684 6.86439 17.6414 6.33048 17.6414C6.06358 17.6414 5.77437 17.7286 5.57415 18.0121C5.41844 17.7722 5.19598 17.6414 4.8623 17.6414C4.63985 17.6414 4.4174 17.7068 4.23943 17.9466V17.685H3.77228V19.7782H4.23943V18.6226C4.23943 18.2519 4.43964 18.0774 4.75107 18.0774C5.06251 18.0774 5.21823 18.2737 5.21823 18.6226V19.7782H5.68539V18.6226C5.68539 18.2519 5.90782 18.0774 6.19703 18.0774C6.50845 18.0774 6.66416 18.2737 6.66416 18.6226V19.7782H7.1758ZM14.0941 17.685H13.3378V17.0527H12.8707V17.685H12.448V18.0992H12.8707V19.0586C12.8707 19.5383 13.0708 19.8217 13.6047 19.8217C13.805 19.8217 14.0274 19.7564 14.1831 19.6691L14.0497 19.2767C13.9162 19.3639 13.7605 19.3857 13.6493 19.3857C13.4268 19.3857 13.3378 19.2549 13.3378 19.0368V18.0992H14.0941V17.685ZM18.0538 17.6414C17.7869 17.6414 17.6089 17.7722 17.4977 17.9466V17.685H17.0305V19.7782H17.4977V18.6008C17.4977 18.2519 17.6534 18.0557 17.9426 18.0557C18.0316 18.0557 18.1428 18.0774 18.2318 18.0992L18.3652 17.6632C18.2763 17.6414 18.1428 17.6414 18.0538 17.6414ZM12.0698 17.8594C11.8474 17.7068 11.5359 17.6414 11.2022 17.6414C10.6684 17.6414 10.3124 17.903 10.3124 18.3173C10.3124 18.6661 10.5794 18.8624 11.0465 18.9278L11.269 18.9496C11.5137 18.9932 11.6471 19.0586 11.6471 19.1677C11.6471 19.3203 11.4692 19.4293 11.1578 19.4293C10.8463 19.4293 10.6016 19.3203 10.4459 19.2113L10.2235 19.5601C10.4682 19.7346 10.8018 19.8217 11.1355 19.8217C11.7584 19.8217 12.1143 19.5383 12.1143 19.1458C12.1143 18.7752 11.8251 18.5789 11.3802 18.5135L11.1578 18.4917C10.9575 18.4699 10.8018 18.4263 10.8018 18.2955C10.8018 18.1429 10.9575 18.0557 11.2022 18.0557C11.4692 18.0557 11.7361 18.1647 11.8696 18.2301L12.0698 17.8594ZM24.4828 17.6414C24.2158 17.6414 24.0378 17.7722 23.9266 17.9466V17.685H23.4595V19.7782H23.9266V18.6008C23.9266 18.2519 24.0823 18.0557 24.3715 18.0557C24.4605 18.0557 24.5717 18.0774 24.6607 18.0992L24.7942 17.6632C24.7052 17.6414 24.5717 17.6414 24.4828 17.6414ZM18.521 18.7316C18.521 19.3639 18.9659 19.8217 19.6555 19.8217C19.9669 19.8217 20.1894 19.7564 20.4118 19.5819L20.1894 19.2113C20.0114 19.3421 19.8335 19.4075 19.6332 19.4075C19.2551 19.4075 18.9881 19.1458 18.9881 18.7316C18.9881 18.3391 19.2551 18.0775 19.6332 18.0557C19.8335 18.0557 20.0114 18.121 20.1894 18.2519L20.4118 17.8812C20.1894 17.7068 19.9669 17.6414 19.6555 17.6414C18.9659 17.6414 18.521 18.0992 18.521 18.7316ZM22.8366 18.7316V17.685H22.3695V17.9466C22.2137 17.7504 21.9913 17.6414 21.7021 17.6414C21.1014 17.6414 20.6343 18.0992 20.6343 18.7316C20.6343 19.3639 21.1014 19.8217 21.7021 19.8217C22.0135 19.8217 22.236 19.7127 22.3695 19.5165V19.7782H22.8366V18.7316ZM21.1237 18.7316C21.1237 18.3609 21.3684 18.0557 21.7688 18.0557C22.147 18.0557 22.4139 18.3391 22.4139 18.7316C22.4139 19.1022 22.147 19.4075 21.7688 19.4075C21.3684 19.3857 21.1237 19.1022 21.1237 18.7316ZM15.5401 17.6414C14.9172 17.6414 14.4723 18.0774 14.4723 18.7316C14.4723 19.3857 14.9172 19.8217 15.5623 19.8217C15.8738 19.8217 16.1852 19.7346 16.4299 19.5383L16.2075 19.2113C16.0295 19.3421 15.807 19.4293 15.5846 19.4293C15.2954 19.4293 15.0062 19.2985 14.9394 18.9278H16.5189C16.5189 18.8624 16.5189 18.8188 16.5189 18.7534C16.5412 18.0774 16.1407 17.6414 15.5401 17.6414ZM15.5401 18.0339C15.8293 18.0339 16.0295 18.2083 16.074 18.5353H14.9617C15.0062 18.2519 15.2064 18.0339 15.5401 18.0339ZM27.13 18.7316V16.8564H26.6628V17.9466C26.5071 17.7504 26.2846 17.6414 25.9954 17.6414C25.3948 17.6414 24.9277 18.0992 24.9277 18.7316C24.9277 19.3639 25.3948 19.8217 25.9954 19.8217C26.3069 19.8217 26.5293 19.7127 26.6628 19.5165V19.7782H27.13V18.7316ZM25.4171 18.7316C25.4171 18.3609 25.6618 18.0557 26.0622 18.0557C26.4404 18.0557 26.7073 18.3391 26.7073 18.7316C26.7073 19.1022 26.4404 19.4075 26.0622 19.4075C25.6618 19.3857 25.4171 19.1022 25.4171 18.7316ZM9.8008 18.7316V17.685H9.33362V17.9466C9.17791 17.7504 8.95548 17.6414 8.66627 17.6414C8.06564 17.6414 7.59847 18.0992 7.59847 18.7316C7.59847 19.3639 8.06564 19.8217 8.66627 19.8217C8.97769 19.8217 9.20017 19.7127 9.33362 19.5165V19.7782H9.8008V18.7316ZM8.06564 18.7316C8.06564 18.3609 8.31033 18.0557 8.71074 18.0557C9.08893 18.0557 9.35588 18.3391 9.35588 18.7316C9.35588 19.1022 9.08893 19.4075 8.71074 19.4075C8.31033 19.3857 8.06564 19.1022 8.06564 18.7316Z" fill="#808080"/>
<path d="M18.9209 1.79004H11.9136V14.1311H18.9209V1.79004Z" fill="#808080"/>
<path d="M12.3586 7.96024C12.3586 5.45279 13.5599 3.2288 15.4062 1.78974C14.0493 0.743154 12.3364 0.11084 10.4678 0.11084C6.04093 0.11084 2.45941 3.62126 2.45941 7.96024C2.45941 12.2992 6.04093 15.8097 10.4678 15.8097C12.3364 15.8097 14.0493 15.1773 15.4062 14.1307C13.5599 12.7135 12.3586 10.4677 12.3586 7.96024Z" fill="#707070"/>
<path d="M28.3745 7.96024C28.3745 12.2992 24.793 15.8097 20.3662 15.8097C18.4976 15.8097 16.7847 15.1773 15.4277 14.1307C17.2963 12.6917 18.4753 10.4677 18.4753 7.96024C18.4753 5.45279 17.2741 3.2288 15.4277 1.78974C16.7847 0.743154 18.4976 0.11084 20.3662 0.11084C24.793 0.11084 28.3745 3.64307 28.3745 7.96024Z" fill="#808080"/>
</svg>
