<svg width="112" height="20" viewBox="0 0 112 20" fill="none" xmlns="http://www.w3.org/2000/svg">
<g clip-path="url(#clip0_203_80)">
<path d="M110.865 1.96535C109.443 0.994624 107.312 0.503906 104.514 0.503906H97.181L94.4542 15.3753H84.8438L85.462 12.001H91.2513L91.9388 8.21263H86.153L86.7712 4.85255H92.7346L93.5269 0.503906H81.4189L78.8289 14.6098H74.3879L76.9939 0.503906H70.6646L68.0781 14.6098H63.7472L66.3568 0.503906H60.0328L57.3006 15.3753H47.621L48.2339 12.001H54.0445L54.732 8.23404H48.9267L49.536 4.86148H55.5758L56.3574 0.503906H18.6265L16.4842 12.2811L12.2066 0.503906H5.6339L2.10596 19.7347H8.37667L10.5084 7.62734L14.6598 19.7347H37.142L39.8741 4.86148H43.3896L40.654 19.7347H99.7905L101.505 10.345L104.279 19.7347H110.554L107.68 12.0616L108.335 11.9242C109.783 11.6137 110.913 10.9428 111.7 9.93996C112.486 8.93711 112.884 7.6202 112.884 6.0624C112.89 4.23871 112.229 2.90039 110.865 1.96535ZM31.6831 15.3753H22.0905L22.7105 12.001H28.7325L29.4164 8.20014H23.4441L24.0197 4.86148H33.6123L31.6831 15.3753ZM105.692 8.89071C105.061 9.33325 104.146 9.54917 102.896 9.54917H101.652L102.603 4.3886H103.516C104.555 4.3886 105.312 4.55634 105.834 4.89895C106.242 5.16483 106.722 5.6948 106.722 6.69765C106.736 7.91285 106.168 8.56238 105.692 8.89071Z" fill="#808080"/>
</g>
<defs>
<clipPath id="clip0_203_80">
<rect width="111" height="20" fill="white" transform="translate(0.793091)"/>
</clipPath>
</defs>
</svg>
