<svg width="50" height="20" viewBox="0 0 50 20" fill="none" xmlns="http://www.w3.org/2000/svg">
<path d="M9.74632 2.5785C9.17203 3.25404 8.25318 3.78687 7.33432 3.71075C7.21946 2.79734 7.66932 1.82683 8.19575 1.2274C8.77003 0.532826 9.77503 0.038059 10.5886 0C10.6843 0.951475 10.311 1.88392 9.74632 2.5785ZM10.579 3.89153C9.2486 3.81541 8.1096 4.6432 7.47789 4.6432C6.83661 4.6432 5.8699 3.92959 4.81704 3.94862C3.44833 3.96765 2.17533 4.73834 1.47662 5.96575C0.0409069 8.42055 1.10333 12.0552 2.49119 14.0533C3.17076 15.0428 3.98433 16.1275 5.05633 16.0894C6.07089 16.0514 6.47289 15.4329 7.69803 15.4329C8.93275 15.4329 9.28689 16.0894 10.3589 16.0704C11.4692 16.0514 12.1679 15.0809 12.8475 14.0913C13.6227 12.9686 13.9386 11.8744 13.9577 11.8173C13.9386 11.7983 11.8137 10.9895 11.7946 8.55376C11.7755 6.5176 13.4696 5.5471 13.5462 5.49001C12.589 4.08183 11.0959 3.92959 10.579 3.89153ZM18.2649 1.13225V15.9657H20.5812V10.8944H23.7876C26.7164 10.8944 28.7743 8.89629 28.7743 6.00381C28.7743 3.11132 26.7547 1.13225 23.8641 1.13225H18.2649ZM20.5812 3.07326H23.2516C25.2616 3.07326 26.4101 4.13892 26.4101 6.01332C26.4101 7.88773 25.2616 8.96289 23.242 8.96289H20.5812V3.07326ZM33.0048 16.0799C34.4597 16.0799 35.8093 15.3473 36.4218 14.1865H36.4697V15.9657H38.6137V8.5823C38.6137 6.44148 36.8908 5.06185 34.2396 5.06185C31.7797 5.06185 29.9611 6.46051 29.8941 8.38249H31.9807C32.153 7.46908 33.0048 6.86965 34.1726 6.86965C35.5891 6.86965 36.3835 7.52617 36.3835 8.73454V9.55281L33.493 9.72407C30.8034 9.88582 29.3486 10.98 29.3486 12.883C29.3486 14.8049 30.8513 16.0799 33.0048 16.0799ZM33.627 14.3197C32.3923 14.3197 31.6074 13.7298 31.6074 12.8259C31.6074 11.8934 32.3636 11.3511 33.8088 11.2655L36.3835 11.1037V11.941C36.3835 13.3302 35.1967 14.3197 33.627 14.3197ZM41.4755 20C43.7344 20 44.7968 19.1437 45.7252 16.5461L49.7931 5.20457H47.4385L44.7107 13.9677H44.6628L41.935 5.20457H39.5134L43.4377 16.0038L43.2271 16.6603C42.873 17.7736 42.2987 18.2017 41.2745 18.2017C41.0927 18.2017 40.7385 18.1827 40.595 18.1637V19.9429C40.729 19.981 41.3032 20 41.4755 20Z" fill="#808080"/>
</svg>
