<svg width="90" height="20" viewBox="0 0 90 20" fill="none" xmlns="http://www.w3.org/2000/svg">
<path d="M57.9625 7.28289C56.4618 5.966 54.6502 5.32244 52.5557 5.32244C50.4899 5.32244 48.6784 5.96711 47.1766 7.28289C45.6759 8.57104 44.9132 10.3642 44.9132 12.6613C44.9132 14.9582 45.6759 16.7504 47.1766 18.0671C48.6773 19.3554 50.4899 20 52.5556 20C54.6502 20 56.4618 19.3554 57.9625 18.0671C59.492 16.7504 60.2547 14.9582 60.2547 12.6612C60.2547 10.3641 59.491 8.57111 57.9625 7.28289ZM49.7262 15.6019C48.9347 14.8461 48.5363 13.8648 48.5363 12.6613C48.5363 11.4567 48.9316 10.4764 49.7262 9.74815C50.5177 8.99237 51.4534 8.62815 52.5546 8.62815C53.6569 8.62815 54.6204 8.99237 55.413 9.74815C56.2321 10.4764 56.6305 11.4567 56.6305 12.6613C56.6305 13.8659 56.2353 14.8461 55.4129 15.6019C54.6214 16.33 53.658 16.6942 52.5546 16.6942C51.4534 16.6942 50.5198 16.3301 49.7262 15.6019ZM65.607 19.6069V0.386148H62.0406V19.6069H65.607ZM77.1192 5.71385V13.3829C77.1192 15.231 76.1098 16.4558 74.1881 16.4558C72.2346 16.4558 71.2518 15.2321 71.2518 13.3829V5.71385H67.679V13.9714C67.679 17.1703 69.717 19.9987 74.1881 19.9987H74.2155C78.6596 19.9987 80.694 17.1079 80.694 13.9714V5.71385H77.1192ZM41.1166 5.71385L37.5502 15.1252L33.9837 5.71385H30.1908L35.8818 19.607H39.2229L44.9127 5.71385H41.1166ZM30.2092 12.2685C30.2092 10.252 29.5588 8.59963 28.2846 7.28289C27.0102 5.966 25.3706 5.32244 23.3604 5.32244C21.2947 5.32244 19.5387 6.02319 18.0946 7.39504C16.6783 8.768 15.9723 10.5039 15.9723 12.6613C15.9723 14.8185 16.6793 16.5831 18.0668 17.955C19.4832 19.3279 21.1815 20 23.1906 20C26.2775 20 28.4564 18.6557 29.7841 15.9384L27.1245 14.4258C26.2486 16.1343 24.9733 16.9747 23.2472 16.9747C21.1249 16.9747 19.6242 15.6304 19.3977 13.5017H30.2082V12.2685H30.2092ZM23.2451 8.01111C25.2543 8.01111 26.5862 9.13104 26.9247 10.9242H19.3956C19.9349 9.27185 21.4048 8.01111 23.2451 8.01111ZM15.9723 19.6071L11.1872 11.3167C14.2142 10.2244 15.7149 8.32007 15.7149 5.54667C15.7182 2.15726 12.9987 0 8.66861 0H0.206909V19.6071H3.94322V11.6523H7.11444L11.6988 19.6071H15.9723ZM8.66861 3.24859C10.8764 3.24859 11.9809 4.11659 11.9809 5.82511C11.9809 7.53356 10.8754 8.40156 8.66861 8.40156H3.94322V3.24859H8.66861ZM86.7401 19.9988C84.4446 19.9988 82.5831 18.1559 82.5831 15.881V1.96052H86.149V5.71926H89.2069V8.57622H86.149V15.6546C86.149 16.3215 86.6949 16.8613 87.3698 16.8613H89.2069V19.9988H86.7401Z" fill="#808080"/>
</svg>
