<svg width="59" height="20" viewBox="0 0 59 20" fill="none" xmlns="http://www.w3.org/2000/svg">
<path d="M42.8472 4.7585C44.0777 4.7585 45.0741 3.71416 45.0741 2.42641C45.0741 1.13867 44.0771 0.0922852 42.8472 0.0922852C41.6173 0.0922852 40.6222 1.13799 40.6222 2.42641C40.6221 2.73273 40.6796 3.03606 40.7914 3.31908C40.9032 3.6021 41.067 3.85926 41.2737 4.07589C41.4803 4.29252 41.7256 4.46436 41.9956 4.5816C42.2656 4.69884 42.5549 4.75918 42.8472 4.75918V4.7585ZM25.7909 6.01634C25.6903 6.2883 24.967 8.42322 23.2176 10.6418V1.15294L18.5568 2.11842V19.3201H23.2182V14.0032C24.5687 16.1246 25.2356 19.3201 25.2356 19.3201H30.8188C30.2674 16.9133 27.8511 12.4768 27.8511 12.4768C29.2867 10.536 30.3932 8.3509 31.1223 6.01702L25.7909 6.01634ZM38.0444 5.83684C33.8701 5.97758 31.7503 7.94048 31.7503 11.8432V19.3195H36.3053V13.2234C36.3053 10.8872 36.5972 9.89182 39.2425 9.78984V5.90755C38.7975 5.80829 38.0444 5.83956 38.0444 5.83956V5.83684ZM10.7402 7.91329C10.1694 7.87453 8.8474 7.7841 8.8474 6.53715C8.8474 5.03251 10.75 5.03251 11.4642 5.03251C12.7194 5.03251 14.3443 5.42006 15.5054 5.78517C15.9009 5.95759 16.3006 6.11901 16.7042 6.26926L16.7561 6.28422V2.16125L16.686 2.13949C15.316 1.63636 13.7235 1.15362 10.7701 1.15362C5.67796 1.15362 3.87463 4.26217 3.87463 6.92606C3.87463 8.46129 4.50255 12.075 10.3335 12.4918C10.8278 12.5238 12.1394 12.6026 12.1394 13.8924C12.1394 14.9565 11.0652 15.584 9.25931 15.584C7.28084 15.584 5.35881 15.0551 4.19313 14.5533V18.798C5.93937 19.2773 7.90746 19.5173 10.2148 19.5173C15.1934 19.5173 17.4229 16.576 17.4229 13.6606C17.4229 10.3548 14.9281 8.20769 10.7415 7.91329H10.7402ZM40.5911 19.3222H45.1085V6.03266H40.5898L40.5911 19.3222ZM53.6152 2.00147V19.3222H58.1339V1.15498L53.6152 2.00147ZM47.0227 2.00147L51.5362 1.15498V19.3222H47.0227V2.00011V2.00147Z" fill="#808080"/>
</svg>
