<svg width="60" height="20" viewBox="0 0 60 20" fill="none" xmlns="http://www.w3.org/2000/svg">
<g clip-path="url(#clip0_203_32)">
<path d="M2.37701 6.03299H19.454V3.74974L10.9147 0.00341797L2.37701 3.74974V6.03299Z" fill="#808080"/>
<path d="M3.39409 6.63916H7.0474V7.59809H6.46797V14.3816H7.0474V15.3066H3.39409V14.3816H4.04268L4.01962 7.5873H3.37103L3.39409 6.63916Z" fill="#808080"/>
<path d="M9.09245 6.63916H12.7473V7.59809H12.1663V14.3816H12.7473V15.3066H9.09245V14.3816H9.74104L9.71799 7.5873H9.0694L9.09245 6.63916Z" fill="#808080"/>
<path d="M14.7847 6.63916H18.438V7.59809H17.8586V14.3816H18.438V15.3066H14.7847V14.3816H15.4333L15.4102 7.5873H14.7617L14.7847 6.63916Z" fill="#808080"/>
<path d="M19.454 15.9907H2.37701V16.7677H19.454V15.9907Z" fill="#808080"/>
<path d="M20.7066 17.4541H1.12439V18.2311H20.7066V17.4541Z" fill="#808080"/>
<path d="M24.3648 5.79654H23.1317L23.1251 5.11431H24.1604C24.3428 5.11431 24.4923 5.09113 24.6088 5.04476C24.7253 4.99619 24.8121 4.92664 24.8693 4.83612C24.9286 4.74339 24.9583 4.63079 24.9583 4.49832C24.9583 4.34819 24.9297 4.22676 24.8726 4.13403C24.8176 4.0413 24.7308 3.97396 24.6121 3.93201C24.4956 3.89006 24.345 3.86909 24.1604 3.86909H23.4746V7.91276H22.4855V3.09082H24.1604C24.4395 3.09082 24.689 3.11731 24.9088 3.1703C25.1308 3.22329 25.3188 3.30388 25.4726 3.41206C25.6265 3.52025 25.7441 3.65713 25.8254 3.82272C25.9068 3.9861 25.9474 4.18039 25.9474 4.40559C25.9474 4.6043 25.9024 4.78755 25.8122 4.95535C25.7243 5.12314 25.5847 5.26003 25.3935 5.36601C25.2045 5.47198 24.9572 5.53049 24.6517 5.54153L24.3648 5.79654ZM24.3219 7.91276H22.8613L23.2471 7.1378H24.3219C24.4956 7.1378 24.6374 7.1102 24.7473 7.05501C24.8572 6.9976 24.9385 6.92033 24.9913 6.82318C25.044 6.72604 25.0704 6.61454 25.0704 6.4887C25.0704 6.34739 25.0462 6.22486 24.9979 6.12109C24.9517 6.01732 24.877 5.93784 24.7737 5.88264C24.6703 5.82524 24.5341 5.79654 24.3648 5.79654H23.4119L23.4185 5.11431H24.6055L24.833 5.38256C25.1253 5.37815 25.3605 5.43003 25.5386 5.53822C25.7188 5.64419 25.8496 5.78218 25.9309 5.95219C26.0145 6.12219 26.0562 6.30434 26.0562 6.49863C26.0562 6.80773 25.9892 7.06825 25.8551 7.28021C25.721 7.48995 25.5243 7.64781 25.2649 7.75379C25.0077 7.85977 24.6934 7.91276 24.3219 7.91276Z" fill="#808080"/>
<path d="M28.75 3.91545L27.4443 7.91276H26.3925L28.1763 3.09082H28.8456L28.75 3.91545ZM29.8347 7.91276L28.5258 3.91545L28.4203 3.09082H29.0962L30.8898 7.91276H29.8347ZM29.7754 6.11778V6.89604H27.2399V6.11778H29.7754Z" fill="#808080"/>
<path d="M35.242 3.09082V7.91276H34.2528L32.324 4.68047V7.91276H31.3349V3.09082H32.324L34.2561 6.32642V3.09082H35.242Z" fill="#808080"/>
<path d="M37.0917 3.09082V7.91276H36.1025V3.09082H37.0917ZM39.9667 3.09082L38.0643 5.47198L36.9664 6.6576L36.7883 5.71705L37.5302 4.69703L38.7534 3.09082H39.9667ZM38.8424 7.91276L37.428 5.68394L38.1599 5.06795L40.0129 7.91276H38.8424Z" fill="#808080"/>
<path d="M24.6319 12.5652V17.3871H23.646V12.5652H24.6319ZM26.109 12.5652V13.3435H22.192V12.5652H26.109Z" fill="#808080"/>
<path d="M26.6728 12.5652H28.4631C28.8302 12.5652 29.1456 12.6204 29.4094 12.7308C29.6754 12.8412 29.8798 13.0046 30.0227 13.2209C30.1655 13.4373 30.237 13.7033 30.237 14.0191C30.237 14.2774 30.193 14.4993 30.1051 14.6847C30.0194 14.868 29.8974 15.0214 29.7391 15.1451C29.583 15.2665 29.3995 15.3636 29.1885 15.4365L28.8753 15.6021H27.319L27.3124 14.8271H28.4697C28.6434 14.8271 28.7873 14.7962 28.9016 14.7344C29.0159 14.6726 29.1017 14.5865 29.1588 14.4761C29.2182 14.3657 29.2478 14.2376 29.2478 14.0919C29.2478 13.9374 29.2193 13.8038 29.1621 13.6912C29.105 13.5786 29.0181 13.4925 28.9016 13.4329C28.7851 13.3733 28.639 13.3435 28.4631 13.3435H27.6619V17.3871H26.6728V12.5652ZM29.3566 17.3871L28.262 15.2378L29.3072 15.2312L30.415 17.3408V17.3871H29.3566Z" fill="#808080"/>
<path d="M32.9505 13.3898L31.6448 17.3871H30.5931L32.3768 12.5652H33.0461L32.9505 13.3898ZM34.0352 17.3871L32.7263 13.3898L32.6208 12.5652H33.2967L35.0903 17.3871H34.0352ZM33.9759 15.5921V16.3704H31.4404V15.5921H33.9759Z" fill="#808080"/>
<path d="M39.4425 12.5652V17.3871H38.4534L36.5246 14.1548V17.3871H35.5354V12.5652H36.5246L38.4567 15.8008V12.5652H39.4425Z" fill="#808080"/>
<path d="M42.8022 16.1253C42.8022 16.0392 42.7891 15.962 42.7627 15.8935C42.7385 15.8229 42.6923 15.7588 42.6242 15.7014C42.5561 15.6418 42.4604 15.5833 42.3374 15.5259C42.2143 15.4685 42.0549 15.4089 41.8593 15.3471C41.6417 15.2764 41.435 15.1969 41.2394 15.1086C41.046 15.0203 40.8745 14.9177 40.7251 14.8006C40.5778 14.6814 40.4613 14.5434 40.3756 14.3867C40.292 14.2299 40.2503 14.0478 40.2503 13.8402C40.2503 13.6393 40.2942 13.4572 40.3822 13.2938C40.4701 13.1282 40.5932 12.9869 40.7514 12.8699C40.9097 12.7507 41.0965 12.659 41.312 12.595C41.5296 12.531 41.7681 12.499 42.0274 12.499C42.3813 12.499 42.6901 12.563 42.9539 12.691C43.2177 12.8191 43.4221 12.9946 43.5672 13.2176C43.7144 13.4406 43.7881 13.6956 43.7881 13.9826H42.8055C42.8055 13.8413 42.7759 13.7177 42.7165 13.6117C42.6594 13.5035 42.5715 13.4185 42.4528 13.3567C42.3363 13.2949 42.189 13.264 42.0109 13.264C41.8395 13.264 41.6966 13.2905 41.5823 13.3435C41.468 13.3942 41.3823 13.4638 41.3251 13.5521C41.268 13.6382 41.2394 13.7354 41.2394 13.8435C41.2394 13.9252 41.2592 13.9992 41.2988 14.0654C41.3405 14.1317 41.4021 14.1935 41.4834 14.2509C41.5647 14.3083 41.6647 14.3624 41.7834 14.4132C41.9021 14.4639 42.0395 14.5136 42.1956 14.5622C42.4572 14.6417 42.6868 14.7311 42.8847 14.8304C43.0847 14.9298 43.2518 15.0413 43.3858 15.1649C43.5199 15.2886 43.621 15.4288 43.6892 15.5855C43.7573 15.7423 43.7914 15.92 43.7914 16.1187C43.7914 16.3285 43.7507 16.5161 43.6694 16.6817C43.5881 16.8473 43.4705 16.9875 43.3166 17.1023C43.1627 17.2171 42.9792 17.3043 42.766 17.3639C42.5528 17.4236 42.3143 17.4534 42.0505 17.4534C41.8131 17.4534 41.579 17.4225 41.3482 17.3606C41.1174 17.2966 40.9075 17.2006 40.7185 17.0725C40.5316 16.9445 40.3822 16.7811 40.2701 16.5824C40.158 16.3837 40.1019 16.1485 40.1019 15.877H41.0943C41.0943 16.0271 41.1174 16.154 41.1636 16.2578C41.2097 16.3616 41.2746 16.4455 41.3581 16.5095C41.4438 16.5735 41.545 16.6199 41.6614 16.6486C41.7801 16.6773 41.9098 16.6917 42.0505 16.6917C42.222 16.6917 42.3626 16.6674 42.4725 16.6188C42.5846 16.5702 42.6671 16.5029 42.7198 16.4168C42.7748 16.3307 42.8022 16.2335 42.8022 16.1253Z" fill="#808080"/>
<path d="M45.4531 12.5652V17.3871H44.464V12.5652H45.4531ZM47.3654 14.6251V15.4001H45.1828V14.6251H47.3654ZM47.5962 12.5652V13.3435H45.1828V12.5652H47.5962Z" fill="#808080"/>
<path d="M51.3912 16.6122V17.3871H48.836V16.6122H51.3912ZM49.1591 12.5652V17.3871H48.1699V12.5652H49.1591ZM51.0582 14.5291V15.2842H48.836V14.5291H51.0582ZM51.3879 12.5652V13.3435H48.836V12.5652H51.3879Z" fill="#808080"/>
<path d="M51.9682 12.5652H53.7585C54.1256 12.5652 54.441 12.6204 54.7048 12.7308C54.9708 12.8412 55.1752 13.0046 55.3181 13.2209C55.461 13.4373 55.5324 13.7033 55.5324 14.0191C55.5324 14.2774 55.4884 14.4993 55.4005 14.6847C55.3148 14.868 55.1928 15.0214 55.0345 15.1451C54.8785 15.2665 54.6949 15.3636 54.4839 15.4365L54.1707 15.6021H52.6144L52.6079 14.8271H53.7651C53.9388 14.8271 54.0828 14.7962 54.1971 14.7344C54.3114 14.6726 54.3971 14.5865 54.4542 14.4761C54.5136 14.3657 54.5433 14.2376 54.5433 14.0919C54.5433 13.9374 54.5147 13.8038 54.4575 13.6912C54.4004 13.5786 54.3136 13.4925 54.1971 13.4329C54.0806 13.3733 53.9344 13.3435 53.7585 13.3435H52.9573V17.3871H51.9682V12.5652ZM54.6521 17.3871L53.5574 15.2378L54.6026 15.2312L55.7104 17.3408V17.3871H54.6521Z" fill="#808080"/>
<path d="M58.7932 16.1253C58.7932 16.0392 58.78 15.962 58.7537 15.8935C58.7295 15.8229 58.6833 15.7588 58.6152 15.7014C58.547 15.6418 58.4514 15.5833 58.3283 15.5259C58.2052 15.4685 58.0459 15.4089 57.8503 15.3471C57.6326 15.2764 57.426 15.1969 57.2304 15.1086C57.037 15.0203 56.8655 14.9177 56.7161 14.8006C56.5688 14.6814 56.4523 14.5434 56.3666 14.3867C56.283 14.2299 56.2413 14.0478 56.2413 13.8402C56.2413 13.6393 56.2852 13.4572 56.3732 13.2938C56.4611 13.1282 56.5842 12.9869 56.7424 12.8699C56.9007 12.7507 57.0875 12.659 57.3029 12.595C57.5205 12.531 57.759 12.499 58.0184 12.499C58.3723 12.499 58.6811 12.563 58.9449 12.691C59.2087 12.8191 59.4131 12.9946 59.5582 13.2176C59.7054 13.4406 59.7791 13.6956 59.7791 13.9826H58.7965C58.7965 13.8413 58.7669 13.7177 58.7075 13.6117C58.6504 13.5035 58.5624 13.4185 58.4437 13.3567C58.3272 13.2949 58.18 13.264 58.0019 13.264C57.8305 13.264 57.6876 13.2905 57.5733 13.3435C57.459 13.3942 57.3733 13.4638 57.3161 13.5521C57.259 13.6382 57.2304 13.7354 57.2304 13.8435C57.2304 13.9252 57.2502 13.9992 57.2897 14.0654C57.3315 14.1317 57.3931 14.1935 57.4744 14.2509C57.5557 14.3083 57.6557 14.3624 57.7744 14.4132C57.8931 14.4639 58.0305 14.5136 58.1866 14.5622C58.4481 14.6417 58.6778 14.7311 58.8757 14.8304C59.0757 14.9298 59.2427 15.0413 59.3768 15.1649C59.5109 15.2886 59.612 15.4288 59.6802 15.5855C59.7483 15.7423 59.7824 15.92 59.7824 16.1187C59.7824 16.3285 59.7417 16.5161 59.6604 16.6817C59.579 16.8473 59.4614 16.9875 59.3076 17.1023C59.1537 17.2171 58.9702 17.3043 58.757 17.3639C58.5438 17.4236 58.3053 17.4534 58.0415 17.4534C57.8041 17.4534 57.57 17.4225 57.3392 17.3606C57.1084 17.2966 56.8985 17.2006 56.7095 17.0725C56.5226 16.9445 56.3732 16.7811 56.2611 16.5824C56.1489 16.3837 56.0929 16.1485 56.0929 15.877H57.0853C57.0853 16.0271 57.1084 16.154 57.1546 16.2578C57.2007 16.3616 57.2656 16.4455 57.3491 16.5095C57.4348 16.5735 57.5359 16.6199 57.6524 16.6486C57.7711 16.6773 57.9008 16.6917 58.0415 16.6917C58.2129 16.6917 58.3536 16.6674 58.4635 16.6188C58.5756 16.5702 58.6581 16.5029 58.7108 16.4168C58.7658 16.3307 58.7932 16.2335 58.7932 16.1253Z" fill="#808080"/>
</g>
<defs>
<clipPath id="clip0_203_32">
<rect width="59" height="20" fill="white" transform="translate(0.206909)"/>
</clipPath>
</defs>
</svg>
