<svg width="62" height="20" viewBox="0 0 62 20" fill="none" xmlns="http://www.w3.org/2000/svg">
<g clip-path="url(#clip0_203_47)">
<path d="M27.7351 19.4991H22.8607L25.9087 0.597656H30.7817L27.7351 19.4991Z" fill="#808080"/>
<path d="M45.3992 1.06066C44.0049 0.522102 42.5226 0.249196 41.0285 0.255983C36.2161 0.255983 32.8271 2.82951 32.8064 6.50938C32.7665 9.22421 35.2329 10.7318 37.0772 11.6373C38.9627 12.5623 39.6034 13.1659 39.6034 13.9906C39.5843 15.257 38.0798 15.8405 36.6768 15.8405C35.0933 15.885 33.523 15.5398 32.1031 14.8351L31.4613 14.5331L30.7795 18.7762C31.9223 19.2983 34.0283 19.7619 36.2143 19.7823C41.3277 19.7823 44.6565 17.2485 44.6953 13.3272C44.7147 11.1756 43.4125 9.52672 40.6063 8.17953C38.9018 7.31471 37.8581 6.73147 37.8581 5.84657C37.8781 5.04218 38.741 4.21809 40.665 4.21809C41.914 4.18142 43.1551 4.42878 44.2952 4.9416L44.7359 5.14239L45.3986 1.06104L45.3992 1.06066Z" fill="#808080"/>
<path d="M51.8766 12.8028C52.2779 11.7168 53.8221 7.51442 53.8221 7.51442C53.8018 7.55486 54.2225 6.40846 54.4633 5.70493L54.8038 7.33342C54.8038 7.33342 55.7266 11.8577 55.9269 12.8028H51.8766ZM57.892 0.597656H54.1226C52.96 0.597656 52.0771 0.939097 51.5756 2.166L44.3364 19.4988H49.4493C49.4493 19.4988 50.291 17.1658 50.4721 16.6634H56.7289C56.8689 17.3271 57.3105 19.4988 57.3105 19.4988H61.8236L57.892 0.597656Z" fill="#808080"/>
<path d="M18.7908 0.598145L14.0178 13.487L13.4962 10.8731C12.6139 7.85701 9.8467 4.57995 6.75873 2.95024L11.13 19.4795H16.2835L23.9433 0.598145H18.7908Z" fill="#808080"/>
<path d="M9.58676 0.598505H1.7464L1.66614 0.980386C7.78212 2.54901 11.8327 6.32974 13.4971 10.8741L11.7928 2.18636C11.5123 0.979161 10.65 0.63706 9.58704 0.597656L9.58676 0.598505Z" fill="#808080"/>
</g>
<defs>
<clipPath id="clip0_203_47">
<rect width="61" height="20" fill="white" transform="translate(0.206909)"/>
</clipPath>
</defs>
</svg>
