<svg width="30" height="30" viewBox="0 0 30 30" fill="none" xmlns="http://www.w3.org/2000/svg">
<path d="M15.0283 3.09375C15.2198 3.0975 15.4089 3.14002 15.584 3.21777C15.7556 3.29404 15.9104 3.40324 16.04 3.53906L25.2432 12.8975H25.2441C25.3765 13.0321 25.481 13.1922 25.5518 13.3672C25.6225 13.5422 25.6588 13.7292 25.6572 13.918C25.6557 14.1066 25.6166 14.2931 25.543 14.4668C25.4693 14.6405 25.3621 14.7983 25.2275 14.9307C25.093 15.063 24.9337 15.1675 24.7588 15.2383C24.5839 15.309 24.3966 15.3452 24.208 15.3438C24.0192 15.3422 23.832 15.3032 23.6582 15.2295C23.4844 15.1558 23.3267 15.0486 23.1943 14.9141L16.4375 8.04199V26.7188C16.4375 27.0999 16.2861 27.4658 16.0166 27.7354C15.747 28.0048 15.3811 28.1562 15 28.1562C14.6189 28.1562 14.2529 28.0049 13.9834 27.7354C13.7139 27.4658 13.5625 27.0999 13.5625 26.7188V8.04199L6.80664 14.9141C6.67428 15.0487 6.51657 15.1558 6.34277 15.2295C6.16904 15.3032 5.98264 15.3421 5.79395 15.3438C5.60514 15.3454 5.41724 15.31 5.24219 15.2393C5.0673 15.1685 4.90798 15.0639 4.77344 14.9316C4.63885 14.7993 4.53174 14.6415 4.45801 14.4678C4.38427 14.2939 4.34535 14.1068 4.34375 13.918C4.3406 13.537 4.48884 13.1702 4.75586 12.8984L13.9736 3.52441L13.9766 3.52148L13.9893 3.50977L13.9922 3.50684C14.1287 3.37251 14.2908 3.26615 14.4688 3.19531C14.6466 3.12454 14.8369 3.09002 15.0283 3.09375Z" fill="#ED433D" stroke="#ED433D"/>
</svg>
