<svg width="25" height="24" viewBox="0 0 25 24" fill="none" xmlns="http://www.w3.org/2000/svg">
<path d="M2.5 5.27L3.78 4L20.5 20.72L19.23 22L16.15 18.92C15 19.3 13.78 19.5 12.5 19.5C7.5 19.5 3.23 16.39 1.5 12C2.19 10.24 3.29 8.69 4.69 7.46L2.5 5.27ZM12.5 9C13.2956 9 14.0587 9.31607 14.6213 9.87868C15.1839 10.4413 15.5 11.2044 15.5 12C15.5005 12.3406 15.443 12.6787 15.33 13L11.5 9.17C11.8213 9.05698 12.1594 8.99949 12.5 9ZM12.5 4.5C17.5 4.5 21.77 7.61 23.5 12C22.6834 14.0729 21.2966 15.8723 19.5 17.19L18.08 15.76C19.4629 14.8034 20.5783 13.5091 21.32 12C20.5117 10.3499 19.2565 8.95963 17.6974 7.98735C16.1382 7.01508 14.3375 6.49976 12.5 6.5C11.41 6.5 10.34 6.68 9.34 7L7.8 5.47C9.24 4.85 10.83 4.5 12.5 4.5ZM3.68 12C4.48835 13.6501 5.74345 15.0404 7.30264 16.0126C8.86182 16.9849 10.6625 17.5002 12.5 17.5C13.19 17.5 13.87 17.43 14.5 17.29L12.22 15C11.5242 14.9254 10.8748 14.6149 10.38 14.12C9.88512 13.6252 9.57458 12.9758 9.5 12.28L6.1 8.87C5.11 9.72 4.28 10.78 3.68 12Z" fill="#FFE500"/>
</svg>
